<svg width="25" height="22" viewBox="0 0 25 22" fill="none" xmlns="http://www.w3.org/2000/svg">
<path d="M13.3786 14.5952C13.4124 14.3587 13.4462 14.1222 13.4462 13.852C13.4462 13.5817 13.4124 13.3452 13.3786 13.1087L14.8989 12.0276C15.034 11.9263 15.1016 11.7235 15.0002 11.5546L13.5137 9.05457C13.4124 8.88565 13.2435 8.81808 13.0745 8.91944L11.3853 9.69648C10.9799 9.39242 10.5745 9.15593 10.1015 8.95322L9.93258 7.09508C9.8988 6.92615 9.76366 6.79102 9.59474 6.79102H6.68927C6.52035 6.79102 6.35143 6.92615 6.35143 7.09508L6.1825 8.95322C5.70952 9.15593 5.27032 9.39242 4.89869 9.69648L3.20947 8.91944C3.04055 8.85187 2.83784 8.91944 2.77027 9.05457L1.31754 11.5546C1.21619 11.7235 1.28376 11.9263 1.41889 12.0276L2.93919 13.1087C2.90541 13.3452 2.87163 13.5817 2.87163 13.852C2.87163 14.1222 2.90541 14.3587 2.93919 14.5952L1.35133 15.6763C1.21619 15.7777 1.14862 15.9804 1.24997 16.1493L2.7027 18.6494C2.80406 18.8183 2.97298 18.8859 3.1419 18.7845L4.83113 18.0075C5.23654 18.3115 5.64195 18.548 6.11493 18.7507L6.28386 20.6089C6.31764 20.7778 6.45278 20.9129 6.6217 20.9129H9.52717C9.69609 20.9129 9.86501 20.7778 9.86501 20.6089L10.0339 18.7507C10.5069 18.548 10.9461 18.3115 11.3177 18.0075L13.007 18.7845C13.1759 18.8521 13.3786 18.7845 13.4462 18.6494L14.8989 16.1493C15.0002 15.9804 14.9327 15.7777 14.7975 15.6763L13.3786 14.5952ZM8.10822 17.2304C6.25007 17.2304 4.72977 15.7101 4.72977 13.852C4.72977 11.9938 6.25007 10.4735 8.10822 10.4735C9.96636 10.4735 11.4867 11.9938 11.4867 13.852C11.4867 15.7101 9.96636 17.2304 8.10822 17.2304Z" fill="#E30F34"/>
<path d="M8.10785 9.79883C5.87807 9.79883 4.05371 11.6232 4.05371 13.853C4.05371 16.0827 5.87807 17.9071 8.10785 17.9071C10.3376 17.9071 12.162 16.0827 12.162 13.853C12.162 11.6232 10.3376 9.79883 8.10785 9.79883ZM8.10785 15.5422C7.16188 15.5422 6.41862 14.7989 6.41862 13.853C6.41862 12.907 7.16188 12.1637 8.10785 12.1637C9.05381 12.1637 9.79707 12.907 9.79707 13.853C9.79707 14.7989 9.05381 15.5422 8.10785 15.5422Z" fill="#CA0427"/>
<g clip-path="url(#clip0_161_3363)">
<path d="M18.9531 5.36105C18.9728 5.2231 18.9925 5.08514 18.9925 4.92748C18.9925 4.76982 18.9728 4.63187 18.9531 4.49391L19.8399 3.86327C19.9188 3.80415 19.9582 3.6859 19.8991 3.58737L19.0319 2.129C18.9728 2.03047 18.8743 1.99105 18.7757 2.05017L17.7904 2.50345C17.5539 2.32608 17.3174 2.18813 17.0415 2.06988L16.9429 0.985962C16.9232 0.887424 16.8444 0.808594 16.7459 0.808594H15.051C14.9525 0.808594 14.8539 0.887424 14.8539 0.985962L14.7554 2.06988C14.4795 2.18813 14.2233 2.32608 14.0065 2.50345L13.0211 2.05017C12.9226 2.01076 12.8043 2.05017 12.7649 2.129L11.9175 3.58737C11.8584 3.6859 11.8978 3.80415 11.9766 3.86327L12.8635 4.49391C12.8437 4.63187 12.824 4.76982 12.824 4.92748C12.824 5.08514 12.8437 5.2231 12.8635 5.36105L11.9372 5.99169C11.8584 6.05082 11.819 6.16906 11.8781 6.2676L12.7255 7.72596C12.7846 7.8245 12.8832 7.86391 12.9817 7.80479L13.9671 7.35152C14.2036 7.52889 14.4401 7.66684 14.716 7.78508L14.8145 8.869C14.8342 8.96754 14.913 9.04637 15.0116 9.04637H16.7064C16.805 9.04637 16.9035 8.96754 16.9035 8.869L17.0021 7.78508C17.278 7.66684 17.5342 7.52889 17.7509 7.35152L18.7363 7.80479C18.8349 7.84421 18.9531 7.80479 18.9925 7.72596L19.8399 6.2676C19.8991 6.16906 19.8597 6.05082 19.7808 5.99169L18.9531 5.36105ZM15.8787 6.89824C14.7948 6.89824 13.908 6.0114 13.908 4.92748C13.908 3.84356 14.7948 2.95672 15.8787 2.95672C16.9626 2.95672 17.8495 3.84356 17.8495 4.92748C17.8495 6.0114 16.9626 6.89824 15.8787 6.89824Z" fill="#E30F34"/>
<path d="M15.8786 2.5625C14.5779 2.5625 13.5137 3.62671 13.5137 4.92741C13.5137 6.22811 14.5779 7.29232 15.8786 7.29232C17.1793 7.29232 18.2435 6.22811 18.2435 4.92741C18.2435 3.62671 17.1793 2.5625 15.8786 2.5625ZM15.8786 5.91279C15.3268 5.91279 14.8932 5.47922 14.8932 4.92741C14.8932 4.3756 15.3268 3.94203 15.8786 3.94203C16.4304 3.94203 16.864 4.3756 16.864 4.92741C16.864 5.47922 16.4304 5.91279 15.8786 5.91279Z" fill="#CA0427"/>
</g>
<g clip-path="url(#clip1_161_3363)">
<path d="M23.3447 14.82C23.3644 14.6821 23.3841 14.5441 23.3841 14.3865C23.3841 14.2288 23.3644 14.0909 23.3447 13.9529L24.2315 13.3223C24.3104 13.2631 24.3498 13.1449 24.2907 13.0464L23.4235 11.588C23.3644 11.4894 23.2659 11.45 23.1673 11.5092L22.182 11.9624C21.9455 11.7851 21.709 11.6471 21.4331 11.5289L21.3345 10.4449C21.3148 10.3464 21.236 10.2676 21.1375 10.2676H19.4426C19.3441 10.2676 19.2455 10.3464 19.2455 10.4449L19.147 11.5289C18.8711 11.6471 18.6149 11.7851 18.3981 11.9624L17.4127 11.5092C17.3142 11.4697 17.1959 11.5092 17.1565 11.588L16.3091 13.0464C16.25 13.1449 16.2894 13.2631 16.3682 13.3223L17.2551 13.9529C17.2353 14.0909 17.2156 14.2288 17.2156 14.3865C17.2156 14.5441 17.2353 14.6821 17.2551 14.82L16.3288 15.4507C16.25 15.5098 16.2106 15.628 16.2697 15.7266L17.1171 17.1849C17.1762 17.2835 17.2748 17.3229 17.3733 17.2638L18.3587 16.8105C18.5952 16.9879 18.8317 17.1258 19.1076 17.2441L19.2061 18.328C19.2258 18.4265 19.3046 18.5054 19.4032 18.5054H21.098C21.1966 18.5054 21.2951 18.4265 21.2951 18.328L21.3937 17.2441C21.6696 17.1258 21.9258 16.9879 22.1425 16.8105L23.1279 17.2638C23.2265 17.3032 23.3447 17.2638 23.3841 17.1849L24.2315 15.7266C24.2907 15.628 24.2513 15.5098 24.1724 15.4507L23.3447 14.82ZM20.2703 16.3572C19.1864 16.3572 18.2996 15.4704 18.2996 14.3865C18.2996 13.3025 19.1864 12.4157 20.2703 12.4157C21.3542 12.4157 22.2411 13.3025 22.2411 14.3865C22.2411 15.4704 21.3542 16.3572 20.2703 16.3572Z" fill="#E30F34"/>
<path d="M20.2702 12.0215C18.9695 12.0215 17.9053 13.0857 17.9053 14.3864C17.9053 15.6871 18.9695 16.7513 20.2702 16.7513C21.5709 16.7513 22.6351 15.6871 22.6351 14.3864C22.6351 13.0857 21.5709 12.0215 20.2702 12.0215ZM20.2702 15.3718C19.7184 15.3718 19.2848 14.9382 19.2848 14.3864C19.2848 13.8346 19.7184 13.401 20.2702 13.401C20.822 13.401 21.2556 13.8346 21.2556 14.3864C21.2556 14.9382 20.822 15.3718 20.2702 15.3718Z" fill="#CA0427"/>
</g>
<defs>
<clipPath id="clip0_161_3363">
<rect width="9.45965" height="9.45965" fill="white" transform="translate(11.1484)"/>
</clipPath>
<clipPath id="clip1_161_3363">
<rect width="9.45965" height="9.45965" fill="white" transform="translate(15.54 9.45898)"/>
</clipPath>
</defs>
</svg>
