<svg width="24" height="24" viewBox="0 0 24 24" fill="none" xmlns="http://www.w3.org/2000/svg">
<path d="M12 2.8125C9.54455 2.8125 7.54688 4.81017 7.54688 7.26562C7.54688 8.33869 7.92844 9.32428 8.56294 10.094L9.21544 8.50003C9.04734 8.12245 8.95312 7.70494 8.95312 7.26562C8.95312 5.58558 10.32 4.21875 12 4.21875C13.68 4.21875 15.0469 5.58558 15.0469 7.26562C15.0469 7.70494 14.9527 8.12241 14.7846 8.50008L15.4371 10.094C16.0716 9.32428 16.4531 8.33869 16.4531 7.26562C16.4531 4.81017 14.4555 2.8125 12 2.8125Z" fill="#E30F34"/>
<path d="M7.41525 12.8976L7.97812 11.5226C6.84736 10.4537 6.14062 8.94075 6.14062 7.26562C6.14062 4.03477 8.76914 1.40625 12 1.40625C15.2309 1.40625 17.8594 4.03477 17.8594 7.26562C17.8594 8.9407 17.1526 10.4537 16.0219 11.5226L16.5848 12.8976C18.2197 11.5642 19.2656 9.53489 19.2656 7.26562C19.2656 3.25936 16.0063 0 12 0C7.99373 0 4.73438 3.25936 4.73438 7.26562C4.73438 9.53489 5.78034 11.5642 7.41525 12.8976Z" fill="#E30F34"/>
<path d="M12 0V1.40625C15.2309 1.40625 17.8594 4.03477 17.8594 7.26562C17.8594 8.9407 17.1526 10.4537 16.0219 11.5226L16.5848 12.8976C18.2197 11.5642 19.2656 9.53489 19.2656 7.26562C19.2656 3.25936 16.0063 0 12 0Z" fill="#E30F34"/>
<path d="M12 2.8125V4.21875C13.68 4.21875 15.0469 5.58558 15.0469 7.26562C15.0469 7.70494 14.9527 8.12241 14.7846 8.50008L15.4371 10.094C16.0716 9.32428 16.4531 8.33869 16.4531 7.26562C16.4531 4.81017 14.4555 2.8125 12 2.8125Z" fill="#E30F34"/>
<path d="M13.1117 8.12597C13.296 7.88813 13.406 7.58981 13.406 7.26562C13.406 6.48895 12.7764 5.85938 11.9998 5.85938C11.2231 5.85938 10.5935 6.48895 10.5935 7.26562C10.5935 7.58981 10.7035 7.88813 10.8878 8.12597L4.38965 24H6.51538L11.9998 21.7148L17.4841 24H19.6099L13.1117 8.12597ZM13.6769 13.2188H10.3226L11.9998 9.12159L13.6769 13.2188ZM12.3457 14.625L8.8402 16.8399L9.7469 14.625H12.3457ZM14.4018 14.9894L15.5958 17.9062H9.78529L14.4018 14.9894ZM11.9998 20.1914L6.53638 22.4678L7.82802 19.3125H16.1714L17.4631 22.4678L11.9998 20.1914Z" fill="#E30F34"/>
<path d="M13.112 8.12597C13.2963 7.88813 13.4063 7.58981 13.4063 7.26562C13.4063 6.48895 12.7767 5.85938 12 5.85938V9.12159L13.6772 13.2188H12V14.625H12.3459L12 14.8436V16.507L14.402 14.9894L15.5961 17.9062H12V19.3125H16.1717L17.4634 22.4678L12 20.1914V21.7148L17.4844 24H19.6101L13.112 8.12597Z" fill="#E30F34"/>
</svg>
