<svg width="18" height="24" viewBox="0 0 18 24" fill="none" xmlns="http://www.w3.org/2000/svg">
<path d="M10.0695 16.3618C10.0695 13.9562 12.0092 12.0069 14.4028 12.0069C15.0355 12.0069 15.6339 12.1452 16.1773 12.394V1.93548C16.1773 0.870968 15.3175 0 14.2514 0H1.92587C0.859763 0 0 0.864055 0 1.93548V17.4677C0 18.5323 0.859763 19.4032 1.92587 19.4032H11.3007C10.5373 18.6152 10.0695 17.5438 10.0695 16.3618ZM3.70042 3.42857H12.4838C12.9033 3.42857 13.2404 3.76728 13.2404 4.18894C13.2404 4.6106 12.9033 4.94931 12.4838 4.94931H3.70042C3.28086 4.94931 2.94383 4.6106 2.94383 4.18894C2.94383 3.76728 3.28086 3.42857 3.70042 3.42857ZM7.33206 16.8525H3.70042C3.28086 16.8525 2.94383 16.5138 2.94383 16.0922C2.94383 15.6705 3.28086 15.3318 3.70042 15.3318H7.33894C7.7585 15.3318 8.09553 15.6705 8.09553 16.0922C8.09553 16.5138 7.75162 16.8525 7.33206 16.8525ZM8.08865 13.7074C8.08865 14.129 7.75162 14.4677 7.33206 14.4677H3.70042C3.28086 14.4677 2.94383 14.129 2.94383 13.7074C2.94383 13.2857 3.28086 12.947 3.70042 12.947H7.33894C7.75162 12.947 8.08865 13.2926 8.08865 13.7074ZM9.49866 7.71429H3.70042C3.28086 7.71429 2.94383 7.37558 2.94383 6.95392C2.94383 6.53226 3.28086 6.19355 3.70042 6.19355H9.49866C9.91823 6.19355 10.2553 6.53226 10.2553 6.95392C10.2553 7.37558 9.91823 7.71429 9.49866 7.71429Z" fill="#E30F34"/>
<path d="M16.2804 19.9635L16.0053 20.3368C15.8402 20.5649 15.5926 20.6755 15.3518 20.6271L14.9598 20.5511L14.5815 20.717C14.3476 20.8206 14.0931 20.7723 13.9006 20.5856L13.5773 20.2815L13.1852 20.2054C13.0889 20.1847 12.9995 20.1501 12.917 20.0879V23.9935L14.5609 22.5764C14.6228 22.5211 14.6984 22.5211 14.7603 22.5764L16.4042 23.9935V19.9082L16.2804 19.9635Z" fill="#E30F34"/>
<path d="M17.8971 15.4984L17.4913 15.0076L17.3537 14.3855C17.3193 14.2403 17.2231 14.1228 17.0855 14.0675L16.5009 13.8256L16.095 13.3348C15.9987 13.2242 15.8543 13.162 15.7099 13.1758L15.0771 13.238L14.4924 12.9961C14.3549 12.9408 14.2036 12.9546 14.0798 13.0375L13.5501 13.3832L12.9174 13.4454C12.7729 13.4592 12.6422 13.5422 12.5666 13.6735L12.2571 14.2265L11.7274 14.5721C11.6036 14.6551 11.528 14.7864 11.5211 14.9385L11.5005 15.5744L11.191 16.1274C11.1222 16.2587 11.1153 16.4108 11.1772 16.5491L11.4592 17.1228L11.4386 17.7587C11.4317 17.9039 11.5005 18.0491 11.6243 18.132L12.1333 18.5053L12.4153 19.079C12.4772 19.2104 12.6078 19.3071 12.7523 19.3279L13.3782 19.4246L13.8872 19.7979C14.0041 19.8878 14.1623 19.9085 14.2999 19.8601L14.8983 19.6528L15.5242 19.7495C15.6686 19.7703 15.8199 19.7219 15.9162 19.6113L16.3495 19.1481L16.9479 18.9408C17.0855 18.8924 17.1955 18.7749 17.2299 18.6366L17.395 18.0214L17.8283 17.5583C17.9315 17.4477 17.9728 17.2956 17.9384 17.1574L17.8008 16.5352L17.9659 15.92C18.0209 15.761 17.9865 15.609 17.8971 15.4984ZM14.5681 18.4846C13.4332 18.4846 12.5116 17.5583 12.5116 16.4177C12.5116 15.2772 13.4332 14.3509 14.5681 14.3509C15.703 14.3509 16.6247 15.2772 16.6247 16.4177C16.6178 17.5652 15.6961 18.4846 14.5681 18.4846Z" fill="#E30F34"/>
</svg>
