<svg width="44" height="50" viewBox="0 0 44 50" fill="none" xmlns="http://www.w3.org/2000/svg">
<g clip-path="url(#clip0_125_40355)">
<path d="M21.1226 21.724C27.1582 21.724 32.0509 16.8609 32.0509 10.862C32.0509 4.86308 27.1582 0 21.1226 0C15.0871 0 10.1943 4.86308 10.1943 10.862C10.1943 16.8609 15.0871 21.724 21.1226 21.724Z" fill="#8499B2"/>
<path d="M27.3257 42.1677C27.3257 37.4084 31.2051 33.5526 35.9935 33.5526C37.8359 33.5526 39.5423 34.1276 40.952 35.1036C39.8923 32.6152 38.2005 30.4312 35.9886 28.8028C31.9294 25.8119 26.8882 24.9229 21.9588 24.575C21.9588 24.575 21.4046 24.5363 21.1226 24.546C20.8407 24.5363 20.2865 24.575 20.2865 24.575C17.0829 24.7344 13.8549 25.2273 10.8409 26.3579C8.65816 27.1793 6.59209 28.3535 4.8809 29.9432C3.52459 31.1994 2.4162 32.707 1.61408 34.3643C0.957798 35.7221 0.505693 37.1764 0.252904 38.6647C0.0681726 39.7277 -0.0144702 40.8052 0.00497517 41.8827C0.0195592 42.5495 0.0584499 43.11 0.413328 43.7139C0.641811 44.1005 0.948075 44.4484 1.34184 44.6658C1.687 44.8543 2.07591 44.9267 2.46481 44.9654C3.83571 45.091 5.26981 44.9799 6.64557 44.9799C8.05536 44.9799 9.47001 44.9799 10.8798 44.9799C13.4563 44.9799 16.0377 44.9799 18.6142 44.9799C19.1684 44.9799 19.7226 44.9799 20.2768 44.9799H21.9491C23.8985 44.9799 25.8479 44.9799 27.7973 44.9799C27.5007 44.0957 27.3257 43.1534 27.3257 42.1677Z" fill="#8499B2"/>
<path d="M36.4893 35.0742C32.3426 35.0742 28.9785 38.4179 28.9785 42.5394C28.9785 46.661 32.3426 50.0046 36.4893 50.0046C40.636 50.0046 44.0001 46.661 44.0001 42.5394C44.0001 38.413 40.6409 35.0742 36.4893 35.0742ZM40.0138 41.4861C38.8616 42.6312 37.7046 43.7812 36.5525 44.9264C36.2754 45.2018 35.7309 45.3226 35.3955 45.0762C34.7975 44.6316 34.1996 44.1871 33.6065 43.7474C32.6342 43.0178 33.5871 41.3701 34.5691 42.1046C34.9774 42.4041 35.376 42.7037 35.7795 43.0033C36.7421 42.0466 37.7046 41.0899 38.6623 40.138C39.5373 39.2731 40.8839 40.6212 40.0138 41.4861Z" fill="#03D68A"/>
</g>
<defs>
<clipPath id="clip0_125_40355">
<rect width="44" height="50" fill="white"/>
</clipPath>
</defs>
</svg>
