<svg width="19" height="22" viewBox="0 0 19 22" fill="none" xmlns="http://www.w3.org/2000/svg">
<path d="M6.31543 6.18262H17.5306V21.0473H6.31543V6.18262Z" fill="#6F859B"/>
<path d="M6.03418 6.73438H17.8273V17.0608H6.03418V6.73438Z" fill="white"/>
<path d="M16.9886 0H6.38048C5.73641 0 5.20898 0.697529 5.20898 1.55305V21.0469H9.72254V18.8013C9.72254 18.3257 10.0154 17.9357 10.3742 17.9357H12.9936C13.3537 17.9357 13.6478 18.3257 13.6478 18.8013V21.0469H18.1614V1.55305C18.1601 0.69921 17.6339 0 16.9886 0ZM8.40778 14.354H6.75957V11.7151H8.40778V14.354ZM8.40778 10.1587H6.75957V7.51986H8.40778V10.1587ZM11.1704 14.354H9.52095V11.7151H11.1704V14.354ZM11.1704 10.1587H9.52095V7.51986H11.1704V10.1587ZM11.1704 5.96513H9.52095V3.32629H11.1704V5.96513ZM13.9318 14.354H12.2836V11.7151H13.9318V14.354ZM13.9318 10.1587H12.2836V7.51986H13.9318V10.1587ZM13.9318 5.96513H12.2836V3.32629H13.9318V5.96513Z" fill="#6F859B"/>
<path d="M1.10645 6.75391H12.3216V21.0468H1.10645V6.75391Z" fill="#6F859B"/>
<path d="M0.825195 7.28418H12.6183V17.2135H0.825195V7.28418Z" fill="white"/>
<path d="M12.0129 5.47949H1.1947C0.537874 5.47949 0 5.99541 0 6.6282V21.0467H4.60296V19.3858C4.60296 19.0339 4.90163 18.7455 5.26754 18.7455H7.93881C8.30601 18.7455 8.60598 19.0339 8.60598 19.3858V21.0467H13.2089V6.6282C13.2076 5.99666 12.6711 5.47949 12.0129 5.47949ZM3.26215 16.0963H1.5813V14.1445H3.26215V16.0963ZM3.26215 12.9933H1.5813V11.0415H3.26215V12.9933ZM3.26215 9.89156H1.5813V7.93976H3.26215V9.89156ZM6.07953 16.0963H4.39738V14.1445H6.07953V16.0963ZM6.07953 12.9933H4.39738V11.0415H6.07953V12.9933ZM6.07953 9.89156H4.39738V7.93976H6.07953V9.89156ZM8.89561 16.0963H7.21475V14.1445H8.89561V16.0963ZM8.89561 12.9933H7.21475V11.0415H8.89561V12.9933ZM8.89561 9.89156H7.21475V7.93976H8.89561V9.89156ZM11.713 16.0963H10.0308V14.1445H11.713V16.0963ZM11.713 12.9933H10.0308V11.0415H11.713V12.9933ZM11.713 9.89156H10.0308V7.93976H11.713V9.89156Z" fill="#8499B2"/>
</svg>
