<svg width="19" height="19" viewBox="0 0 19 19" fill="none" xmlns="http://www.w3.org/2000/svg">
<path d="M13.4062 0.125C12.0055 0.125 10.7359 0.3875 9.74375 0.882031C8.75234 1.37656 7.9375 2.18203 7.9375 3.25V6.375C7.9375 6.47578 7.97109 6.57344 7.98672 6.66797C7.20471 6.46925 6.4006 6.37081 5.59375 6.375C4.19297 6.375 2.92344 6.6375 1.93125 7.13203C0.939844 7.62656 0.125 8.43203 0.125 9.5V15.75C0.125 16.818 0.939844 17.6234 1.93203 18.118C2.92344 18.6125 4.19297 18.875 5.59375 18.875C6.99453 18.875 8.26406 18.6125 9.25625 18.118C10.2469 17.6234 11.0625 16.818 11.0625 15.75V15.4328C11.8268 15.6394 12.6146 15.746 13.4062 15.75C14.807 15.75 16.0766 15.4875 17.0688 14.993C18.0594 14.4984 18.875 13.693 18.875 12.625V3.25C18.875 2.18203 18.0602 1.37656 17.068 0.882031C16.0773 0.3875 14.8078 0.125 13.4062 0.125ZM13.4062 1.6875C14.5961 1.6875 15.6555 1.94375 16.3602 2.29766C17.0656 2.65156 17.3125 3.02422 17.3125 3.25C17.3125 3.47656 17.0656 3.84844 16.3602 4.20234C15.6562 4.55625 14.5961 4.8125 13.4062 4.8125C12.2164 4.8125 11.157 4.55625 10.4523 4.20234C9.74687 3.84844 9.5 3.47578 9.5 3.25C9.5 3.02344 9.74687 2.65156 10.4523 2.29766C11.1562 1.94375 12.2164 1.6875 13.4062 1.6875ZM9.5 5.47187C9.58203 5.51719 9.65859 5.57578 9.74453 5.61797C10.7359 6.1125 12.0055 6.375 13.4062 6.375C14.807 6.375 16.0766 6.1125 17.0688 5.61797C17.1539 5.57578 17.2305 5.51719 17.3125 5.47187V6.375C17.3125 6.60156 17.0656 6.97344 16.3602 7.32734C15.6555 7.68125 14.5961 7.9375 13.4062 7.9375C12.2164 7.9375 11.157 7.68125 10.4523 7.32734C9.74687 6.97344 9.5 6.60078 9.5 6.375V5.47187ZM5.59375 7.9375C6.78359 7.9375 7.84297 8.19375 8.54766 8.54766C9.25313 8.90156 9.5 9.27422 9.5 9.5C9.5 9.72656 9.25313 10.0984 8.54766 10.4523C7.84297 10.8062 6.78359 11.0625 5.59375 11.0625C4.40391 11.0625 3.34453 10.8062 2.63984 10.4523C1.93437 10.0984 1.6875 9.72578 1.6875 9.5C1.6875 9.27344 1.93437 8.90156 2.63984 8.54766C3.34375 8.19375 4.40391 7.9375 5.59375 7.9375ZM17.3125 8.59688V9.5C17.3125 9.72656 17.0656 10.0984 16.3602 10.4523C15.6555 10.8062 14.5961 11.0625 13.4062 11.0625C12.6104 11.0668 11.8191 10.9431 11.0625 10.6961V9.5C11.0625 9.39922 11.0289 9.30156 11.0133 9.20703C11.7398 9.39609 12.5453 9.5 13.4062 9.5C14.807 9.5 16.0766 9.2375 17.0688 8.74297C17.1539 8.70078 17.2305 8.64219 17.3125 8.59688ZM1.6875 11.7219C1.76953 11.7672 1.84609 11.8258 1.93203 11.868C2.92344 12.3625 4.19297 12.625 5.59375 12.625C6.99453 12.625 8.26406 12.3625 9.25625 11.868C9.34141 11.8258 9.41797 11.7672 9.5 11.7219V12.625C9.5 12.8516 9.25313 13.2234 8.54766 13.5773C7.84297 13.9312 6.78359 14.1875 5.59375 14.1875C4.40391 14.1875 3.34453 13.9312 2.63984 13.5773C1.93437 13.2234 1.6875 12.8508 1.6875 12.625V11.7219ZM17.3125 11.7219V12.625C17.3125 12.8516 17.0656 13.2234 16.3602 13.5773C15.6555 13.9312 14.5961 14.1875 13.4062 14.1875C12.518 14.1875 11.7156 14.0625 11.0625 13.8453V12.332C11.7797 12.5211 12.5609 12.625 13.4062 12.625C14.807 12.625 16.0766 12.3625 17.0688 11.868C17.1539 11.8258 17.2305 11.7672 17.3125 11.7219ZM1.6875 14.8469C1.76953 14.8922 1.84609 14.9508 1.93203 14.993C2.92344 15.4875 4.19297 15.75 5.59375 15.75C6.99453 15.75 8.26406 15.4875 9.25625 14.993C9.34141 14.9508 9.41797 14.8922 9.5 14.8469V15.75C9.5 15.9766 9.25313 16.3484 8.54766 16.7023C7.84297 17.0562 6.78359 17.3125 5.59375 17.3125C4.40391 17.3125 3.34453 17.0562 2.63984 16.7023C1.93437 16.3484 1.6875 15.9758 1.6875 15.75V14.8469Z" fill="white"/>
</svg>
