<svg width="23" height="29" viewBox="0 0 23 29" fill="none" xmlns="http://www.w3.org/2000/svg">
<path d="M22.5408 7.30381C22.7342 7.49717 22.8438 7.7582 22.8438 8.03213V27.9062C22.8438 28.4767 22.3829 28.9375 21.8125 28.9375H1.1875C0.61709 28.9375 0.15625 28.4767 0.15625 27.9062V1.09375C0.15625 0.52334 0.61709 0.0625 1.1875 0.0625H14.8741C15.148 0.0625 15.4123 0.17207 15.6057 0.36543L22.5408 7.30381V7.30381ZM20.4654 8.50586L14.4004 2.44082V8.50586H20.4654ZM5.3125 13.5332C5.24412 13.5332 5.17855 13.5604 5.1302 13.6087C5.08185 13.6571 5.05469 13.7226 5.05469 13.791V15.3379C5.05469 15.4063 5.08185 15.4718 5.1302 15.5202C5.17855 15.5685 5.24412 15.5957 5.3125 15.5957H17.6875C17.7559 15.5957 17.8215 15.5685 17.8698 15.5202C17.9182 15.4718 17.9453 15.4063 17.9453 15.3379V13.791C17.9453 13.7226 17.9182 13.6571 17.8698 13.6087C17.8215 13.5604 17.7559 13.5332 17.6875 13.5332H5.3125ZM5.3125 17.916C5.24412 17.916 5.17855 17.9432 5.1302 17.9915C5.08185 18.0399 5.05469 18.1055 5.05469 18.1738V19.7207C5.05469 19.7891 5.08185 19.8547 5.1302 19.903C5.17855 19.9514 5.24412 19.9785 5.3125 19.9785H11.2422C11.3106 19.9785 11.3761 19.9514 11.4245 19.903C11.4728 19.8547 11.5 19.7891 11.5 19.7207V18.1738C11.5 18.1055 11.4728 18.0399 11.4245 17.9915C11.3761 17.9432 11.3106 17.916 11.2422 17.916H5.3125Z" fill="#DFE0EB"/>
</svg>
