<svg width="17" height="21" viewBox="0 0 17 21" fill="none" xmlns="http://www.w3.org/2000/svg">
<g clip-path="url(#clip0_143_614)">
<path d="M14.6223 4.95798C14.0933 4.87304 13.7282 4.33191 13.8058 3.75304L14.1077 1.51618L14.099 1.5036L4.89034 0.0123607C4.36134 -0.0725831 3.86971 0.326968 3.78921 0.905844L1.50357 17.7688C1.42594 18.3476 1.79107 18.8856 2.32007 18.9737L13.9179 20.8551C14.4469 20.94 14.9385 20.5405 15.019 19.9616L16.9971 5.36382L16.9798 5.3418L14.6223 4.95798Z" fill="#6F859B"/>
<path d="M13.8053 3.75324C13.7277 4.33212 14.0928 4.87009 14.6218 4.95818L16.9794 5.342L14.1072 1.51953L13.8053 3.75324Z" fill="#9EB6C6"/>
<path d="M14.1118 1.50684H14.0986L14.1085 1.52094L14.1118 1.50684Z" fill="#8499B2"/>
<path opacity="0.39" d="M14.1118 1.50684H14.0986L14.1085 1.52094L14.1118 1.50684Z" fill="#8499B2"/>
<path d="M16.9795 5.3418L16.9967 5.36382L16.9996 5.34494L16.9795 5.3418Z" fill="#8499B2"/>
<path opacity="0.39" d="M16.9795 5.3418L16.9967 5.36382L16.9996 5.34494L16.9795 5.3418Z" fill="#8499B2"/>
<path d="M11.2586 5.16589C10.7238 5.16589 10.2897 4.69083 10.2897 4.10566V1.84364L10.2782 1.83105H0.968882C0.434128 1.8342 0 2.30926 0 2.89443V19.943C0 20.5281 0.434128 21.0032 0.968882 21.0032H12.6932C13.228 21.0032 13.6621 20.5281 13.6621 19.943V5.18476L13.642 5.16589H11.2586Z" fill="#8499B2"/>
<path d="M10.29 4.10577C10.29 4.69094 10.7242 5.166 11.2589 5.166H13.6423L10.29 1.84375V4.10577Z" fill="#B6C6D3"/>
<path d="M10.2922 1.83398H10.2783L10.2922 1.84505V1.83398Z" fill="#8499B2"/>
<path opacity="0.39" d="M10.2922 1.83398H10.2783L10.2922 1.84505V1.83398Z" fill="#8499B2"/>
<path d="M13.6416 5.16602L13.6617 5.18489V5.16602H13.6416Z" fill="#8499B2"/>
<path opacity="0.39" d="M13.6416 5.16602L13.6617 5.18489V5.16602H13.6416Z" fill="#8499B2"/>
<path d="M10.6175 6.83019H3.04469C2.78306 6.83019 2.57031 6.59739 2.57031 6.31109C2.57031 6.0248 2.78306 5.79199 3.04469 5.79199H10.6175C10.8791 5.79199 11.0919 6.0248 11.0919 6.31109C11.089 6.59739 10.8763 6.83019 10.6175 6.83019Z" fill="white"/>
<path d="M10.6521 9.67125H3.01025C2.76874 9.67125 2.57324 9.45732 2.57324 9.19305C2.57324 8.92878 2.76874 8.71484 3.01025 8.71484H10.6549C10.8964 8.71484 11.0919 8.92878 11.0919 9.19305C11.0891 9.45732 10.8936 9.67125 10.6521 9.67125Z" fill="white"/>
<path d="M7.4176 15.7775H2.94119C2.73706 15.7775 2.57031 15.595 2.57031 15.3716V15.1451C2.57031 14.9217 2.73706 14.7393 2.94119 14.7393H7.4176C7.62172 14.7393 7.78848 14.9217 7.78848 15.1451V15.3716C7.7856 15.595 7.61885 15.7775 7.4176 15.7775Z" fill="white"/>
<path d="M7.44353 18.6156H2.91537C2.72849 18.6156 2.57324 18.4457 2.57324 18.2412V18.0336C2.57324 17.8291 2.72849 17.6592 2.91537 17.6592H7.4464C7.63328 17.6592 7.78853 17.8291 7.78853 18.0336V18.2412C7.78565 18.4488 7.63328 18.6156 7.44353 18.6156Z" fill="white"/>
</g>
<defs>
<clipPath id="clip0_143_614">
<rect width="17" height="21" fill="white"/>
</clipPath>
</defs>
</svg>
