<svg width="37" height="37" viewBox="0 0 37 37" fill="none" xmlns="http://www.w3.org/2000/svg">
<circle cx="18.4964" cy="18.4964" r="17.973" fill="#FEAB30" fill-opacity="0.1"/>
<g clip-path="url(#clip0_222_1041)">
<path d="M10.002 13.5234C10.002 12.993 10.2127 12.4843 10.5877 12.1092C10.9628 11.7342 11.4715 11.5234 12.002 11.5234H24.002C24.5324 11.5234 25.0411 11.7342 25.4162 12.1092C25.7912 12.4843 26.002 12.993 26.002 13.5234V23.5234C26.002 24.0539 25.7912 24.5626 25.4162 24.9377C25.0411 25.3127 24.5324 25.5234 24.002 25.5234H12.002C11.4715 25.5234 10.9628 25.3127 10.5877 24.9377C10.2127 24.5626 10.002 24.0539 10.002 23.5234V13.5234V13.5234ZM11.002 22.5234V23.5234C11.002 23.7887 11.1073 24.043 11.2948 24.2305C11.4824 24.4181 11.7367 24.5234 12.002 24.5234H24.002C24.2672 24.5234 24.5215 24.4181 24.7091 24.2305C24.8966 24.043 25.002 23.7887 25.002 23.5234V20.0234L21.225 18.0764C21.1312 18.0295 21.025 18.0132 20.9215 18.0299C20.8179 18.0465 20.7222 18.0954 20.648 18.1694L16.938 21.8794L14.278 20.1074C14.1819 20.0435 14.0667 20.0147 13.9519 20.026C13.8371 20.0373 13.7297 20.088 13.648 20.1694L11.002 22.5234ZM16.002 16.0234C16.002 15.6256 15.8439 15.2441 15.5626 14.9628C15.2813 14.6815 14.8998 14.5234 14.502 14.5234C14.1041 14.5234 13.7226 14.6815 13.4413 14.9628C13.16 15.2441 13.002 15.6256 13.002 16.0234C13.002 16.4213 13.16 16.8028 13.4413 17.0841C13.7226 17.3654 14.1041 17.5234 14.502 17.5234C14.8998 17.5234 15.2813 17.3654 15.5626 17.0841C15.8439 16.8028 16.002 16.4213 16.002 16.0234Z" fill="#FEAB30"/>
</g>
<defs>
<clipPath id="clip0_222_1041">
<rect width="16" height="16" fill="white" transform="translate(10 10.5234)"/>
</clipPath>
</defs>
</svg>
