<svg width="21" height="21" viewBox="0 0 21 21" fill="none" xmlns="http://www.w3.org/2000/svg">
<path d="M11.2024 14.4276C10.758 14.3963 10.8431 13.9726 10.9312 13.6396L11.6758 10.8241C11.7617 10.5008 11.7157 10.1566 11.548 9.86707C11.3803 9.57759 11.1045 9.36648 10.7813 9.28011C10.4581 9.19374 10.1138 9.23917 9.82406 9.40641C9.53431 9.57365 9.32276 9.84904 9.23587 10.1721C9.12715 10.5747 8.25714 14.1653 8.25177 14.1878C8.13011 14.6979 7.98459 15.3499 8.2089 15.8528C8.5492 16.6155 9.58271 16.394 10.2106 16.2124C10.6419 16.0895 11.0548 15.9092 11.438 15.6763C11.8775 15.3765 12.2952 15.0459 12.688 14.6871L12.6047 13.8496C12.2101 14.1857 11.7192 14.388 11.2024 14.4276Z" fill="#8499B2"/>
<path d="M11.5031 4.61241C11.0233 4.6074 10.5596 4.78516 10.2061 5.10961C9.8526 5.43406 9.63582 5.88088 9.59978 6.35934C9.58838 6.64497 9.66231 6.92752 9.81214 7.17097C10.3932 8.11122 11.7282 7.90646 12.45 7.2575C13.4026 6.40096 12.7646 4.69148 11.5031 4.61241Z" fill="#8499B2"/>
<path d="M10.5001 1.60905e-10C8.42335 -1.14941e-05 6.39328 0.615794 4.66655 1.76954C2.93983 2.92329 1.59401 4.56317 0.79928 6.4818C0.00455268 8.40042 -0.203386 10.5116 0.201757 12.5484C0.606899 14.5852 1.60693 16.4562 3.07538 17.9246C4.54384 19.3931 6.41477 20.3931 8.45157 20.7982C10.4884 21.2034 12.5996 20.9954 14.5182 20.2007C16.4368 19.406 18.0767 18.0602 19.2305 16.3334C20.3842 14.6067 21 12.5766 21 10.4999C20.9968 7.71615 19.8896 5.04728 17.9212 3.07885C15.9527 1.11041 13.2839 0.00315531 10.5001 1.60905e-10ZM10.5001 18.7445C8.86945 18.7445 7.27545 18.261 5.91964 17.3551C4.56383 16.4492 3.5071 15.1616 2.88307 13.6551C2.25905 12.1486 2.09577 10.4909 2.41387 8.89166C2.73197 7.29237 3.51717 5.82333 4.67018 4.67031C5.82319 3.51728 7.29221 2.73205 8.89149 2.41392C10.4908 2.09579 12.1485 2.25904 13.655 2.88304C15.1615 3.50703 16.4491 4.56374 17.355 5.91954C18.2609 7.27533 18.7445 8.86932 18.7445 10.4999C18.742 12.6858 17.8726 14.7813 16.327 16.327C14.7814 17.8726 12.6859 18.742 10.5001 18.7445Z" fill="#8499B2"/>
</svg>
