<svg width="57" height="49" viewBox="0 0 57 49" fill="none" xmlns="http://www.w3.org/2000/svg">
<g clip-path="url(#clip0_125_40301)">
<path d="M27.3462 7.00785C26.1499 7.52044 24.7646 6.97856 24.246 5.79594L22.2459 1.23755L22.2126 1.22656L1.41862 10.1383C0.222243 10.6509 -0.325941 12.0239 0.192612 13.2029L15.2825 47.594C15.801 48.7767 17.19 49.3185 18.3827 48.806L44.5659 37.5802C45.7622 37.0676 46.3104 35.6946 45.7919 34.5157L32.7318 4.74513L32.6688 4.72316L27.3462 7.00785Z" fill="#546C7F"/>
<path d="M24.246 5.7957C24.7645 6.97832 26.1535 7.5202 27.3462 7.00761L32.6687 4.72292L22.2458 1.2373L24.246 5.7957Z" fill="#B6C6D3"/>
<path d="M22.2352 1.21191L22.2089 1.22309L22.2465 1.23799L22.2352 1.21191Z" fill="#8499B2"/>
<path opacity="0.39" d="M22.2352 1.21191L22.2089 1.22309L22.2465 1.23799L22.2352 1.21191Z" fill="#8499B2"/>
<path d="M32.6725 4.72338L32.7318 4.74535L32.7132 4.70508L32.6725 4.72338Z" fill="#8499B2"/>
<path opacity="0.39" d="M32.6725 4.72338L32.7318 4.74535L32.7132 4.70508L32.6725 4.72338Z" fill="#8499B2"/>
<path d="M45.7845 10.9037C44.4955 10.7134 43.6065 9.53074 43.7992 8.25658L44.5362 3.33937L44.514 3.31008L22.0977 0.0258421C20.8088 -0.164549 19.6124 0.717839 19.4198 1.98833L13.8565 39.0706C13.6639 40.3448 14.5565 41.5274 15.8418 41.7178L44.0732 45.8588C45.3622 46.0492 46.5586 45.1668 46.7512 43.8963L51.5663 11.7971L51.5256 11.7459L45.7845 10.9037Z" fill="#6F859B"/>
<path d="M43.7991 8.25656C43.6065 9.53072 44.4991 10.7133 45.7844 10.9037L51.5255 11.7458L44.5362 3.33936L43.7991 8.25656Z" fill="#9EB6C6"/>
<path d="M44.5404 3.3177L44.514 3.31396L44.5366 3.34012L44.5404 3.3177Z" fill="#8499B2"/>
<path opacity="0.39" d="M44.5404 3.3177L44.514 3.31396L44.5366 3.34012L44.5404 3.3177Z" fill="#8499B2"/>
<path d="M51.5256 11.7461L51.5664 11.7974L51.5738 11.7534L51.5256 11.7461Z" fill="#8499B2"/>
<path opacity="0.39" d="M51.5256 11.7461L51.5664 11.7974L51.5738 11.7534L51.5256 11.7461Z" fill="#8499B2"/>
<path d="M37.5988 11.3576C36.2951 11.3576 35.2394 10.3141 35.2394 9.02535V4.05688L35.2135 4.03125H12.5528C11.249 4.03125 10.1934 5.07474 10.1934 6.36354V43.8522C10.1934 45.141 11.249 46.1845 12.5528 46.1845H41.0917C42.3955 46.1845 43.4511 45.141 43.4511 43.8522V11.4016L43.4029 11.3576H37.5988Z" fill="#8499B2"/>
<path d="M35.2394 9.02511C35.2394 10.3139 36.295 11.3574 37.5988 11.3574H43.4029L35.2394 4.05664V9.02511Z" fill="#B6C6D3"/>
<path d="M35.2399 4.03125H35.2135L35.2399 4.0574V4.03125Z" fill="#8499B2"/>
<path opacity="0.39" d="M35.2399 4.03125H35.2135L35.2399 4.0574V4.03125Z" fill="#8499B2"/>
<path d="M43.3992 11.3574L43.448 11.4021V11.3574H43.3992Z" fill="#8499B2"/>
<path opacity="0.39" d="M43.3992 11.3574L43.448 11.4021V11.3574H43.3992Z" fill="#8499B2"/>
<path d="M36.0358 15.023H17.6049C16.9716 15.023 16.453 14.5104 16.453 13.8843C16.453 13.2582 16.9716 12.7456 17.6049 12.7456H36.0358C36.6691 12.7456 37.1877 13.2582 37.1877 13.8843C37.1877 14.5104 36.6691 15.023 36.0358 15.023Z" fill="white"/>
<path d="M36.1247 21.2652H17.516C16.9308 21.2652 16.453 20.7929 16.453 20.2144C16.453 19.6359 16.9308 19.1636 17.516 19.1636H36.1209C36.7062 19.1636 37.184 19.6359 37.184 20.2144C37.1877 20.7929 36.7099 21.2652 36.1247 21.2652Z" fill="white"/>
<path d="M28.2464 34.6917H17.3531C16.8567 34.6917 16.453 34.2889 16.453 33.802V33.3077C16.453 32.8171 16.8604 32.418 17.3531 32.418H28.2464C28.7427 32.418 29.1464 32.8207 29.1464 33.3077V33.802C29.1464 34.2926 28.7427 34.6917 28.2464 34.6917Z" fill="white"/>
<path d="M28.313 40.9378H17.2864C16.8271 40.9378 16.453 40.568 16.453 40.114V39.6563C16.453 39.2023 16.8271 38.8325 17.2864 38.8325H28.3167C28.776 38.8325 29.1501 39.2023 29.1501 39.6563V40.114C29.1464 40.568 28.7723 40.9378 28.313 40.9378Z" fill="white"/>
<path d="M57 15.2278C57 14.869 56.8333 14.5175 56.5296 14.3198C55.7259 13.8035 54.9258 13.928 54.348 14.1624C53.8331 14.3711 53.5072 14.8727 53.5072 15.4219V17.7468H57V15.2278Z" fill="#8499B2"/>
<path d="M57 18.439H53.5072V40.528L57 40.495V18.439Z" fill="#8499B2"/>
<path d="M53.5072 41.176V41.2236L55.2518 45.35L57 41.1797V41.165V41.1431L53.5072 41.176Z" fill="#8499B2"/>
</g>
<defs>
<clipPath id="clip0_125_40301">
<rect width="57" height="49" fill="white"/>
</clipPath>
</defs>
</svg>
