<svg width="36" height="37" viewBox="0 0 36 37" fill="none" xmlns="http://www.w3.org/2000/svg">
<circle cx="17.973" cy="18.4964" r="17.973" fill="#5660D4" fill-opacity="0.1"/>
<path d="M23.8264 13.5391C23.9372 13.673 24 13.8538 24 14.0435V27.8092C24 28.2042 23.7359 28.5234 23.4091 28.5234H11.5909C11.2641 28.5234 11 28.2042 11 27.8092V9.23772C11 8.84263 11.2641 8.52344 11.5909 8.52344H19.4334C19.5903 8.52344 19.7418 8.59933 19.8526 8.73326L23.8264 13.5391V13.5391ZM22.6372 14.3717L19.1619 10.1708V14.3717H22.6372ZM13.9545 17.8538C13.9154 17.8538 13.8778 17.8726 13.8501 17.9061C13.8224 17.9396 13.8068 17.985 13.8068 18.0324V19.1038C13.8068 19.1512 13.8224 19.1966 13.8501 19.2301C13.8778 19.2636 13.9154 19.2824 13.9545 19.2824H21.0455C21.0846 19.2824 21.1222 19.2636 21.1499 19.2301C21.1776 19.1966 21.1932 19.1512 21.1932 19.1038V18.0324C21.1932 17.985 21.1776 17.9396 21.1499 17.9061C21.1222 17.8726 21.0846 17.8538 21.0455 17.8538H13.9545ZM13.9545 20.8895C13.9154 20.8895 13.8778 20.9083 13.8501 20.9418C13.8224 20.9753 13.8068 21.0207 13.8068 21.0681V22.1395C13.8068 22.1869 13.8224 22.2323 13.8501 22.2658C13.8778 22.2993 13.9154 22.3181 13.9545 22.3181H17.3523C17.3915 22.3181 17.429 22.2993 17.4567 22.2658C17.4844 22.2323 17.5 22.1869 17.5 22.1395V21.0681C17.5 21.0207 17.4844 20.9753 17.4567 20.9418C17.429 20.9083 17.3915 20.8895 17.3523 20.8895H13.9545Z" fill="#5660D4"/>
</svg>
