<svg width="20" height="20" viewBox="0 0 20 20" fill="none" xmlns="http://www.w3.org/2000/svg">
<path d="M10 2.34375C7.95379 2.34375 6.28906 4.00848 6.28906 6.05469C6.28906 6.94891 6.60703 7.77023 7.13578 8.41164L7.67953 7.08336C7.53945 6.76871 7.46094 6.42078 7.46094 6.05469C7.46094 4.65465 8.59996 3.51562 10 3.51562C11.4 3.51562 12.5391 4.65465 12.5391 6.05469C12.5391 6.42078 12.4605 6.76867 12.3205 7.0834L12.8643 8.41164C13.393 7.77023 13.7109 6.94891 13.7109 6.05469C13.7109 4.00848 12.0462 2.34375 10 2.34375Z" fill="#FF0000"/>
<path d="M6.17938 10.748L6.64844 9.60219C5.70613 8.71144 5.11719 7.45062 5.11719 6.05469C5.11719 3.3623 7.30762 1.17188 10 1.17188C12.6924 1.17188 14.8828 3.3623 14.8828 6.05469C14.8828 7.45059 14.2939 8.71145 13.3516 9.60215L13.8207 10.748C15.183 9.63684 16.0547 7.94574 16.0547 6.05469C16.0547 2.71613 13.3386 0 10 0C6.66145 0 3.94531 2.71613 3.94531 6.05469C3.94531 7.94574 4.81695 9.63684 6.17938 10.748Z" fill="#FF0000"/>
<path d="M10 0V1.17188C12.6924 1.17188 14.8828 3.3623 14.8828 6.05469C14.8828 7.45059 14.2939 8.71145 13.3516 9.60215L13.8207 10.748C15.183 9.63684 16.0547 7.94574 16.0547 6.05469C16.0547 2.71613 13.3386 0 10 0Z" fill="#FF0000"/>
<path d="M10 2.34375V3.51562C11.4 3.51562 12.5391 4.65465 12.5391 6.05469C12.5391 6.42078 12.4605 6.76867 12.3205 7.0834L12.8643 8.41164C13.393 7.77023 13.7109 6.94891 13.7109 6.05469C13.7109 4.00848 12.0462 2.34375 10 2.34375Z" fill="#FF0000"/>
<path d="M10.9266 6.77164C11.0802 6.57344 11.1718 6.32484 11.1718 6.05469C11.1718 5.40746 10.6472 4.88281 9.99996 4.88281C9.35274 4.88281 8.82809 5.40746 8.82809 6.05469C8.82809 6.32484 8.91973 6.57344 9.07332 6.77164L3.6582 20H5.42965L9.99996 18.0957L14.5703 20H16.3417L10.9266 6.77164ZM11.3976 11.0156H8.60231L9.99996 7.60133L11.3976 11.0156ZM10.2882 12.1875L7.36699 14.0333L8.12258 12.1875H10.2882ZM12.0016 12.4911L12.9967 14.9219H8.15457L12.0016 12.4911ZM9.99996 16.8262L5.44715 18.7232L6.52352 16.0938H13.4764L14.5527 18.7232L9.99996 16.8262Z" fill="#0025A7"/>
<path d="M10.9266 6.77164C11.0802 6.57344 11.1719 6.32484 11.1719 6.05469C11.1719 5.40746 10.6472 4.88281 10 4.88281V7.60133L11.3977 11.0156H10V12.1875H10.2883L10 12.3696V13.7559L12.0017 12.4911L12.9967 14.9219H10V16.0938H13.4764L14.5528 18.7232L10 16.8262V18.0957L14.5703 20H16.3418L10.9266 6.77164Z" fill="#0025A7"/>
</svg>
