<svg width="20" height="20" viewBox="0 0 20 20" fill="none" xmlns="http://www.w3.org/2000/svg">
<path d="M4.5 4.5C4.5 6.981 6.519 9 9 9C11.481 9 13.5 6.981 13.5 4.5C13.5 2.019 11.481 0 9 0C6.519 0 4.5 2.019 4.5 4.5ZM17 19H18V18C18 14.141 14.859 11 11 11H7C3.14 11 0 14.141 0 18V19H17Z" fill="#8499B2"/>
<path d="M15.5 19.25C17.5711 19.25 19.25 17.5711 19.25 15.5C19.25 13.4289 17.5711 11.75 15.5 11.75C13.4289 11.75 11.75 13.4289 11.75 15.5C11.75 17.5711 13.4289 19.25 15.5 19.25Z" fill="white" stroke="#8499B2" stroke-linecap="round" stroke-linejoin="round"/>
<path d="M15.5 14V17" stroke="#8499B2" stroke-width="0.8" stroke-linecap="round" stroke-linejoin="round"/>
<path d="M14 15.5H17" stroke="#8499B2" stroke-width="0.8" stroke-linecap="round" stroke-linejoin="round"/>
</svg>
