<svg width="26" height="26" viewBox="0 0 26 26" fill="none" xmlns="http://www.w3.org/2000/svg">
<path d="M24.8357 23.0459H15.1339C14.8129 23.0459 14.5502 22.7809 14.5502 22.457V20.7905C14.5502 20.4667 14.8129 20.2017 15.1339 20.2017H24.8357C25.1567 20.2017 25.4194 20.4667 25.4194 20.7905V22.457C25.4194 22.7809 25.1567 23.0459 24.8357 23.0459Z" fill="#8499B2"/>
<path d="M24.1586 20.7671H15.8053C15.4842 20.7671 15.2216 20.5021 15.2216 20.1782V18.5117C15.2216 18.1878 15.4842 17.9229 15.8053 17.9229H24.1586C24.4797 17.9229 24.7424 18.1878 24.7424 18.5117V20.1782C24.7424 20.5021 24.4797 20.7671 24.1586 20.7671Z" fill="#8499B2"/>
<path d="M9.52423 5.19172C9.61762 4.79718 9.87447 4.45564 10.1547 4.17298C10.2306 4.09054 10.3123 4.01399 10.3998 3.94332C10.3998 3.94332 11.2521 3.2779 11.2521 3.27201L12.0868 2.57714C12.1744 2.51237 12.2678 2.44759 12.3612 2.38871C12.6998 2.1826 13.085 2.00005 13.4878 2.00005C14.1008 1.99416 14.5502 2.48293 14.7662 3.0188C14.8771 3.30145 14.7254 3.60178 14.8071 3.89032C14.883 4.14354 15.0639 4.34375 15.2974 4.45564C15.5543 4.58519 15.8403 4.46153 16.103 4.57341C16.3365 4.66763 16.5058 4.87374 16.6575 5.06806C16.8327 5.29183 17.0136 5.50971 17.1887 5.7276C17.574 6.19869 17.9593 6.67568 18.3504 7.14677C18.4671 7.2881 18.5839 7.42943 18.6656 7.59431C18.8232 7.91819 18.689 8.18907 18.7357 8.51884C18.7882 8.88982 18.9692 9.24903 19.3369 9.37859C19.5762 9.46103 19.8389 9.40214 20.0549 9.54936C20.5277 9.87324 20.9072 10.4209 20.7729 11.0215C20.6854 11.4161 20.4343 11.7635 20.16 12.0521C20.0841 12.1345 20.0024 12.211 19.9207 12.2876C19.9207 12.2876 19.0742 12.9648 19.0801 12.9707L18.257 13.6773C18.1694 13.7421 18.076 13.8069 17.9826 13.8717C17.6499 14.0895 17.2646 14.2721 16.8618 14.278C16.2489 14.2898 15.7878 13.8128 15.5718 13.2828C15.4725 13.0355 15.5776 12.7881 15.5426 12.5349C15.5017 12.1993 15.2507 11.9578 14.9705 11.8047C14.6611 11.634 14.2759 11.74 13.984 11.5162C13.8381 11.4043 13.7213 11.263 13.6046 11.1216C13.2135 10.6505 12.8224 10.1794 12.4371 9.71424C12.2561 9.49636 12.0752 9.27848 11.8942 9.06648C11.7366 8.87805 11.5673 8.67194 11.5148 8.42462C11.4739 8.23618 11.5556 8.05952 11.5732 7.87108C11.5965 7.64731 11.4973 7.38821 11.3747 7.19977C11.2754 7.04666 11.1295 6.92889 10.9602 6.87C10.7209 6.78167 10.4582 6.84056 10.2422 6.68745C9.75189 6.34591 9.38413 5.79237 9.52423 5.19172Z" fill="#8499B2"/>
<path d="M12.5421 11.8756C12.4954 11.752 12.3845 11.6401 12.2911 11.5459C12.0343 11.275 11.8008 10.9747 11.5673 10.6861C11.4155 10.5036 11.2579 10.321 11.112 10.1326C11.0069 9.99714 10.9018 9.79104 10.7092 9.77337C10.5107 9.75571 10.3414 9.90881 10.2072 10.0384C10.0671 10.1738 9.90945 10.2739 9.76935 10.4094C9.41327 10.7627 9.39576 11.3457 9.10389 11.7402C8.8412 12.0994 8.48512 12.4115 8.16406 12.7118C7.85468 13.0004 7.53946 13.283 7.21257 13.5539C6.74557 13.9308 6.25523 14.3136 5.71819 14.5844C4.96517 14.9554 4.20046 15.3029 3.49414 15.7504C2.9571 16.0919 2.43173 16.4512 1.93555 16.8457C1.41018 17.2638 0.896491 17.7172 0.49371 18.259C0.196002 18.6594 -0.0900307 19.1835 0.0267175 19.7017C0.0675793 19.8843 0.160978 20.055 0.283563 20.1964C0.441173 20.3848 0.575434 20.5438 0.80893 20.6439C1.42186 20.9148 2.12235 20.6616 2.67106 20.3612C4.09539 19.5839 5.2512 18.2295 6.23188 16.9635C6.86232 16.1508 7.52195 15.3323 8.28081 14.6374C8.63106 14.3077 8.99881 14.0015 9.39576 13.7365C9.75768 13.4891 10.1896 13.1947 10.6216 13.1005C10.8026 13.0593 10.9894 13.0593 11.1762 13.0298C11.4272 12.9886 11.6432 12.8767 11.8416 12.7236C12.0576 12.5587 12.4137 12.3644 12.5304 12.1171C12.5713 12.0346 12.5713 11.9522 12.5421 11.8756Z" fill="#8499B2"/>
</svg>
