<svg width="26" height="26" viewBox="0 0 26 26" fill="none" xmlns="http://www.w3.org/2000/svg">
<path d="M21.4048 13.627C21.45 13.259 21.4839 12.891 21.4839 12.5C21.4839 12.109 21.45 11.741 21.4048 11.373L23.7909 9.4755C24.0058 9.303 24.0623 8.9925 23.9266 8.7395L21.6649 4.7605C21.5292 4.5075 21.2238 4.4155 20.9751 4.5075L18.1592 5.6575C17.5712 5.1975 16.9379 4.818 16.2481 4.5305L15.8183 1.483C15.7844 1.207 15.5469 1 15.2642 1H10.7408C10.4581 1 10.2206 1.207 10.1867 1.483L9.75693 4.5305C9.06711 4.818 8.43383 5.209 7.84578 5.6575L5.02994 4.5075C4.76985 4.404 4.47582 4.5075 4.34012 4.7605L2.0784 8.7395C1.93139 8.9925 1.99924 9.303 2.21411 9.4755L4.60022 11.373C4.55498 11.741 4.52106 12.1205 4.52106 12.5C4.52106 12.8795 4.55498 13.259 4.60022 13.627L2.21411 15.5245C1.99924 15.697 1.9427 16.0075 2.0784 16.2605L4.34012 20.2395C4.47582 20.4925 4.78116 20.5845 5.02994 20.4925L7.84578 19.3425C8.43383 19.8025 9.06711 20.182 9.75693 20.4695L10.1867 23.517C10.2206 23.793 10.4581 24 10.7408 24H15.2642C15.5469 24 15.7844 23.793 15.8183 23.517L16.2481 20.4695C16.9379 20.182 17.5712 19.791 18.1592 19.3425L20.9751 20.4925C21.2351 20.596 21.5292 20.4925 21.6649 20.2395L23.9266 16.2605C24.0623 16.0075 24.0058 15.697 23.7909 15.5245L21.4048 13.627V13.627ZM13.0025 16.525C10.8199 16.525 9.04449 14.7195 9.04449 12.5C9.04449 10.2805 10.8199 8.475 13.0025 8.475C15.1851 8.475 16.9605 10.2805 16.9605 12.5C16.9605 14.7195 15.1851 16.525 13.0025 16.525Z" fill="#8499B2"/>
</svg>
