<svg width="26" height="26" viewBox="0 0 26 26" fill="none" xmlns="http://www.w3.org/2000/svg">
<g clip-path="url(#clip0_610_283)">
<path d="M23.4883 6.44742L12.2833 2.80547C11.1419 2.43644 9.90905 3.07345 9.5431 4.22447L4.98184 18.4892C4.61589 19.6402 5.24758 20.8834 6.38899 21.2525L17.5983 24.8944C18.7397 25.2635 19.9726 24.6264 20.3385 23.4754L24.8954 9.21513C25.2614 8.06412 24.6297 6.82084 23.4883 6.44742ZM20.0597 16.6836C19.9334 17.0833 19.4542 17.2854 18.988 17.1361L9.2425 13.9686C8.78071 13.8192 8.50625 13.3711 8.63695 12.9713C8.76764 12.5715 9.2425 12.3694 9.70865 12.5188L19.4542 15.6863C19.9159 15.8357 20.1904 16.2838 20.0597 16.6836ZM21.2185 13.3623C21.0922 13.7621 20.613 13.9642 20.1468 13.8148L10.4013 10.6473C9.93954 10.4979 9.66508 10.0498 9.79578 9.65006C9.92647 9.25028 10.4013 9.04819 10.8675 9.19756L20.613 12.365C21.0748 12.5144 21.3449 12.9625 21.2185 13.3623ZM22.3904 10.1728C22.2641 10.5726 21.7849 10.7747 21.3187 10.6253L11.5732 7.45785C11.1114 7.30849 10.837 6.86038 10.9677 6.4606C11.094 6.06082 11.5732 5.85873 12.0394 6.0081L21.7849 9.17559C22.2467 9.32496 22.5211 9.77307 22.3904 10.1728Z" fill="#8499B2"/>
<path d="M16.8795 23.3175H3.52249C2.32445 23.3175 1.34424 22.329 1.34424 21.1209V3.53497C1.34424 2.32685 2.32445 1.33838 3.52249 1.33838H16.8795C18.0776 1.33838 19.0578 2.32685 19.0578 3.53497V21.1209C19.0578 22.329 18.0776 23.3175 16.8795 23.3175Z" fill="#8499B2"/>
<path d="M16.8795 22.9879C14.7274 22.9879 12.5709 22.9879 10.4188 22.9879C8.13164 22.9879 5.82705 23.067 3.53988 22.9879C2.49868 22.9528 1.71015 22.1752 1.67094 21.1208C1.66659 20.9714 1.67094 20.8221 1.67094 20.6727C1.67094 19.6842 1.67094 18.7002 1.67094 17.7117C1.67094 14.5925 1.67094 11.4734 1.67094 8.3542C1.67094 7.13728 1.67094 5.92476 1.67094 4.70785C1.67094 3.96979 1.56203 3.10873 1.99768 2.47611C2.65116 1.53157 3.73157 1.66776 4.7205 1.66776C6.07973 1.66776 7.4346 1.66776 8.79383 1.66776C11.4034 1.66776 14.0173 1.66776 16.6268 1.66776C17.8162 1.66776 18.718 2.40582 18.731 3.66227C18.7397 4.44865 18.731 5.23503 18.731 6.02141C18.731 9.07468 18.731 12.1279 18.731 15.1812C18.731 17.1538 18.8007 19.1351 18.731 21.1076C18.6962 22.1532 17.9251 22.9528 16.8795 22.9879C16.4613 23.0011 16.4569 23.6601 16.8795 23.6469C18.4522 23.5942 19.3845 22.3421 19.3845 20.8396C19.3845 19.8819 19.3845 18.9286 19.3845 17.9709C19.3845 14.698 19.3845 11.4294 19.3845 8.1565C19.3845 6.93081 19.3845 5.7095 19.3845 4.4838C19.3845 3.58759 19.4324 2.71334 18.8356 1.95771C18.0558 0.978033 16.9797 1.00439 15.8732 1.00439C14.4878 1.00439 13.1024 1.00439 11.717 1.00439C9.03344 1.00439 6.34548 0.986819 3.66187 1.00439C2.19808 1.01757 1.05668 2.06754 1.01747 3.56562C1.00004 4.28171 1.01747 4.9978 1.01747 5.7095C1.01747 8.89895 1.01747 12.0928 1.01747 15.2823C1.01747 16.6661 1.01747 18.0544 1.01747 19.4382C1.01747 20.0664 0.973902 20.7122 1.03054 21.3405C1.12638 22.3773 1.86263 23.2735 2.86027 23.5546C3.20879 23.6513 3.56602 23.6469 3.92326 23.6469C5.09951 23.6469 6.27142 23.6469 7.44767 23.6469C10.4014 23.6469 13.3551 23.6469 16.3088 23.6469C16.5005 23.6469 16.6922 23.6469 16.8839 23.6469C17.3021 23.6469 17.3021 22.9879 16.8795 22.9879Z" fill="#F6F9FC"/>
<path d="M5.00368 4.87939H15.4027C15.8949 4.87939 16.2957 5.26599 16.2957 5.74046C16.2957 6.21492 15.8949 6.60152 15.4027 6.60152H5.00368C4.51139 6.60152 4.1106 6.21492 4.1106 5.74046C4.1106 5.26599 4.50704 4.87939 5.00368 4.87939Z" fill="white"/>
<path d="M5.00368 9.29004H15.4027C15.8949 9.29004 16.2957 9.67664 16.2957 10.1511C16.2957 10.6256 15.8949 11.0122 15.4027 11.0122H5.00368C4.51139 11.0122 4.1106 10.6256 4.1106 10.1511C4.1106 9.67664 4.50704 9.29004 5.00368 9.29004Z" fill="white"/>
<path d="M5.00368 13.7051H15.4027C15.8949 13.7051 16.2957 14.0917 16.2957 14.5661C16.2957 15.0406 15.8949 15.4272 15.4027 15.4272H5.00368C4.51139 15.4272 4.1106 15.0406 4.1106 14.5661C4.1106 14.0917 4.50704 13.7051 5.00368 13.7051Z" fill="white"/>
</g>
<defs>
<clipPath id="clip0_610_283">
<rect width="24" height="24" fill="white" transform="translate(1 1)"/>
</clipPath>
</defs>
</svg>
