<svg width="26" height="26" viewBox="0 0 26 26" fill="none" xmlns="http://www.w3.org/2000/svg">
<path d="M21.6993 12.6561H12.3426V3.30045C12.3426 3.18534 12.2484 3.09115 12.1333 3.09115H11.453C10.0801 3.08975 8.72037 3.35943 7.45192 3.88471C6.18347 4.40999 5.03124 5.18053 4.06133 6.15213C3.10639 7.10401 2.34569 8.23249 1.82159 9.47473C1.27735 10.7645 1 12.1328 1 13.5456C1 14.9583 1.27735 16.324 1.82159 17.6138C2.34751 18.8565 3.10107 19.9762 4.06133 20.9364C5.02159 21.8965 6.13885 22.65 7.38431 23.1759C8.672 23.7221 10.0568 24.0024 11.4556 24C12.8286 24.0014 14.1883 23.7317 15.4567 23.2064C16.7251 22.6812 17.8774 21.9106 18.8473 20.939C19.8076 19.9789 20.5611 18.8617 21.087 17.6164C21.6333 16.3289 21.9137 14.9442 21.9112 13.5456V12.8654C21.9086 12.7502 21.8144 12.6561 21.6993 12.6561ZM23.9992 11.2041L23.9312 10.4663C23.7088 8.05936 22.6412 5.78848 20.9196 4.07485C19.1995 2.35642 16.9329 1.29311 14.5117 1.06882L13.7712 1.00079C13.6483 0.99033 13.5436 1.08451 13.5436 1.20748V11.2459C13.5436 11.361 13.6378 11.4552 13.7529 11.4552L23.7899 11.429C23.9129 11.4264 24.0097 11.3244 23.9992 11.2041Z" fill="#8499B2"/>
</svg>
