<svg width="26" height="26" viewBox="0 0 26 26" fill="none" xmlns="http://www.w3.org/2000/svg">
<path d="M14.1884 17.7252C14.1884 15.1192 16.3435 13.0075 19.0031 13.0075C19.7062 13.0075 20.371 13.1573 20.9748 13.4268V2.09677C20.9748 0.943548 20.0195 0 18.8349 0H5.13985C3.95529 0 3 0.93606 3 2.09677V18.9234C3 20.0766 3.95529 21.0202 5.13985 21.0202H15.5564C14.7081 20.1665 14.1884 19.0058 14.1884 17.7252ZM7.11158 3.71429H16.8708C17.337 3.71429 17.7115 4.08122 17.7115 4.53802C17.7115 4.99482 17.337 5.36175 16.8708 5.36175H7.11158C6.6454 5.36175 6.27092 4.99482 6.27092 4.53802C6.27092 4.08122 6.6454 3.71429 7.11158 3.71429ZM11.1467 18.2569H7.11158C6.6454 18.2569 6.27092 17.89 6.27092 17.4332C6.27092 16.9764 6.6454 16.6094 7.11158 16.6094H11.1544C11.6206 16.6094 11.995 16.9764 11.995 17.4332C11.995 17.89 11.6129 18.2569 11.1467 18.2569ZM11.9874 14.8497C11.9874 15.3064 11.6129 15.6734 11.1467 15.6734H7.11158C6.6454 15.6734 6.27092 15.3064 6.27092 14.8497C6.27092 14.3929 6.6454 14.0259 7.11158 14.0259H11.1544C11.6129 14.0259 11.9874 14.4003 11.9874 14.8497ZM13.5541 8.35714H7.11158C6.6454 8.35714 6.27092 7.99021 6.27092 7.53341C6.27092 7.07661 6.6454 6.70968 7.11158 6.70968H13.5541C14.0203 6.70968 14.3947 7.07661 14.3947 7.53341C14.3947 7.99021 14.0203 8.35714 13.5541 8.35714Z" fill="#8499B2"/>
<path d="M21.0895 21.6268L20.7838 22.0312C20.6004 22.2783 20.3253 22.3981 20.0578 22.3457L19.6222 22.2633L19.2019 22.443C18.942 22.5554 18.6593 22.503 18.4453 22.3008L18.0861 21.9713L17.6505 21.8889C17.5435 21.8664 17.4441 21.829 17.3524 21.7616V25.9926L19.1789 24.4574C19.2477 24.3975 19.3318 24.3975 19.4006 24.4574L21.2271 25.9926V21.5669L21.0895 21.6268Z" fill="#8499B2"/>
<path d="M22.8854 16.7893L22.4345 16.2576L22.2817 15.5836C22.2435 15.4264 22.1365 15.299 21.9836 15.2391L21.334 14.977L20.8831 14.4454C20.7761 14.3255 20.6156 14.2581 20.4552 14.2731L19.7521 14.3405L19.1025 14.0784C18.9496 14.0185 18.7815 14.0335 18.6439 14.1234L18.0555 14.4978L17.3524 14.5652C17.1919 14.5802 17.0467 14.67 16.9626 14.8123L16.6187 15.4114L16.0302 15.7858C15.8927 15.8757 15.8086 16.0179 15.801 16.1827L15.778 16.8716L15.4341 17.4707C15.3577 17.613 15.3501 17.7777 15.4189 17.9275L15.7322 18.549L15.7093 19.238C15.7016 19.3952 15.778 19.5525 15.9156 19.6424L16.4811 20.0467L16.7945 20.6683C16.8633 20.8106 17.0085 20.9154 17.1689 20.9379L17.8644 21.0427L18.4299 21.4471C18.5599 21.5444 18.7356 21.5669 18.8885 21.5145L19.5534 21.2898L20.2488 21.3947C20.4093 21.4171 20.5774 21.3647 20.6844 21.2449L21.1659 20.7432L21.8308 20.5185C21.9836 20.4661 22.1059 20.3388 22.1441 20.189L22.3275 19.5226L22.809 19.0208C22.9236 18.901 22.9695 18.7363 22.9313 18.5865L22.7784 17.9125L22.9618 17.2461C23.023 17.0738 22.9848 16.9091 22.8854 16.7893ZM19.1865 20.0243C17.9255 20.0243 16.9015 19.0208 16.9015 17.7852C16.9015 16.5496 17.9255 15.5462 19.1865 15.5462C20.4475 15.5462 21.4716 16.5496 21.4716 17.7852C21.4639 19.0283 20.4399 20.0243 19.1865 20.0243Z" fill="#8499B2"/>
</svg>
