<svg width="26" height="26" viewBox="0 0 26 26" fill="none" xmlns="http://www.w3.org/2000/svg">
<path d="M5.23928 2.12695H2.27051C1.57173 2.12695 1 2.71718 1 3.43856V22.6886C1 23.4099 1.57173 24.0002 2.27051 24.0002H5.23928C5.93806 24.0002 6.50979 23.4099 6.50979 22.6886V3.43856C6.50979 2.71718 5.93806 2.12695 5.23928 2.12695ZM3.75701 22.4918C3.07941 22.4918 2.53309 21.9235 2.53309 21.2283C2.53309 20.5332 3.08364 19.9648 3.75701 19.9648C4.43039 19.9648 4.98094 20.5332 4.98094 21.2283C4.98094 21.9235 4.43039 22.4918 3.75701 22.4918ZM5.35363 7.36026H2.1604C1.90206 7.36026 1.68608 7.14166 1.68608 6.87059C1.68608 6.59953 1.89783 6.38093 2.1604 6.38093H5.35363C5.61196 6.38093 5.82795 6.59953 5.82795 6.87059C5.82795 7.14166 5.61196 7.36026 5.35363 7.36026ZM5.35363 5.51964H2.1604C1.90206 5.51964 1.68608 5.30104 1.68608 5.02997C1.68608 4.75891 1.89783 4.54031 2.1604 4.54031H5.35363C5.61196 4.54031 5.82795 4.75891 5.82795 5.02997C5.82795 5.30104 5.61196 5.51964 5.35363 5.51964Z" fill="#8499B2"/>
<path d="M12.3711 2.12695H9.40235C8.70357 2.12695 8.13184 2.71718 8.13184 3.43856V22.6886C8.13184 23.4099 8.70357 24.0002 9.40235 24.0002H12.3711C13.0699 24.0002 13.6416 23.4099 13.6416 22.6886V3.43856C13.6416 2.71718 13.0699 2.12695 12.3711 2.12695ZM10.8846 22.4918C10.207 22.4918 9.66069 21.9235 9.66069 21.2283C9.66069 20.5332 10.2112 19.9648 10.8846 19.9648C11.558 19.9648 12.1085 20.5332 12.1085 21.2283C12.1085 21.9235 11.5622 22.4918 10.8846 22.4918ZM12.4812 7.36026H9.288C9.02967 7.36026 8.81368 7.14166 8.81368 6.87059C8.81368 6.59953 9.02543 6.38093 9.288 6.38093H12.4812C12.7396 6.38093 12.9556 6.59953 12.9556 6.87059C12.9556 7.14166 12.7396 7.36026 12.4812 7.36026ZM12.4812 5.51964H9.288C9.02967 5.51964 8.81368 5.30104 8.81368 5.02997C8.81368 4.75891 9.02543 4.54031 9.288 4.54031H12.4812C12.7396 4.54031 12.9556 4.75891 12.9556 5.02997C12.9556 5.30104 12.7396 5.51964 12.4812 5.51964Z" fill="#8499B2"/>
<path d="M24.9449 21.377L19.5918 2.93584C19.3928 2.24506 18.6813 1.84721 18.0121 2.05707L15.1662 2.93584C14.4971 3.14133 14.1117 3.87583 14.315 4.56661L19.6681 23.0078C19.8671 23.6986 20.5786 24.0964 21.2477 23.8866L24.0937 23.0078C24.7628 22.8023 25.1482 22.0678 24.9449 21.377ZM15.4161 5.89133C15.3398 5.63338 15.4838 5.36231 15.7337 5.28362L18.7914 4.33926C19.0413 4.26057 19.3038 4.40921 19.3801 4.66716C19.4563 4.92511 19.3123 5.19618 19.0624 5.27487L16.0047 6.21923C15.7549 6.29355 15.4881 6.14928 15.4161 5.89133ZM19.5749 7.0368L16.5172 7.98115C16.2673 8.05985 16.0047 7.9112 15.9285 7.65325C15.8523 7.3953 15.9963 7.12424 16.2461 7.04554L19.3038 6.10118C19.5537 6.02249 19.8163 6.17114 19.8925 6.42909C19.9645 6.68704 19.8205 6.9581 19.5749 7.0368ZM22.2514 22.0022C21.6035 22.2033 20.9216 21.823 20.7268 21.154C20.532 20.4851 20.9004 19.7812 21.5484 19.5801C22.1964 19.379 22.8782 19.7594 23.073 20.4283C23.2678 21.0972 22.8994 21.8055 22.2514 22.0022Z" fill="#8499B2"/>
</svg>
