<svg width="26" height="26" viewBox="0 0 26 26" fill="none" xmlns="http://www.w3.org/2000/svg">
<path d="M13 13.3125C14.7658 13.3125 16.3258 13.735 17.5933 14.2875C18.7633 14.8075 19.5 15.9775 19.5 17.245V17.9167C19.5 18.5125 19.0125 19 18.4167 19H7.58333C6.9875 19 6.5 18.5125 6.5 17.9167V17.2558C6.5 15.9775 7.23667 14.8075 8.40667 14.2983C9.67417 13.735 11.2342 13.3125 13 13.3125ZM4.33333 13.5833C5.525 13.5833 6.5 12.6083 6.5 11.4167C6.5 10.225 5.525 9.25 4.33333 9.25C3.14167 9.25 2.16667 10.225 2.16667 11.4167C2.16667 12.6083 3.14167 13.5833 4.33333 13.5833ZM5.5575 14.775C5.15667 14.71 4.75583 14.6667 4.33333 14.6667C3.26083 14.6667 2.2425 14.8942 1.32167 15.295C0.52 15.6417 0 16.4217 0 17.2992V17.9167C0 18.5125 0.4875 19 1.08333 19H4.875V17.2558C4.875 16.3567 5.12417 15.5117 5.5575 14.775ZM21.6667 13.5833C22.8583 13.5833 23.8333 12.6083 23.8333 11.4167C23.8333 10.225 22.8583 9.25 21.6667 9.25C20.475 9.25 19.5 10.225 19.5 11.4167C19.5 12.6083 20.475 13.5833 21.6667 13.5833ZM26 17.2992C26 16.4217 25.48 15.6417 24.6783 15.295C23.7575 14.8942 22.7392 14.6667 21.6667 14.6667C21.2442 14.6667 20.8433 14.71 20.4425 14.775C20.8758 15.5117 21.125 16.3567 21.125 17.2558V19H24.9167C25.5125 19 26 18.5125 26 17.9167V17.2992ZM13 6C14.7983 6 16.25 7.45167 16.25 9.25C16.25 11.0483 14.7983 12.5 13 12.5C11.2017 12.5 9.75 11.0483 9.75 9.25C9.75 7.45167 11.2017 6 13 6Z" fill="#8499B2"/>
</svg>
