<svg width="156" height="134" viewBox="0 0 156 134" fill="none" xmlns="http://www.w3.org/2000/svg">
<circle opacity="0.1" cx="53" cy="53" r="53" fill="#0038A8"/>
<circle opacity="0.1" cx="117" cy="95" r="39" fill="#0038A8"/>
<path d="M137.05 57.4791L88.4667 100.321L39.6626 57.4791C40.3251 56.375 40.9876 55.05 42.0917 54.1666L82.5042 18.8332C85.8167 15.7416 91.1167 15.7416 94.4292 18.8332L134.842 54.1666C135.946 55.05 136.608 56.375 137.05 57.4791Z" fill="#DB7A00"/>
<path d="M128 84C128 89.5228 123.523 94 118 94H60C54.4772 94 50 89.5228 50 84V29.579C50 25.4105 54 22 58.889 22H118C123.523 22 128 26.4772 128 32V84Z" fill="#FFE1D6"/>
<path d="M137.933 61.0125V106.946C137.933 112.025 133.958 116 128.879 116H48.0543C42.975 116 39 112.025 39 106.946V61.0125C39 59.9084 39.2209 58.5834 39.6625 57.4791L88.4666 100.321L137.271 57.4791C137.712 58.5834 137.933 59.9084 137.933 61.0125Z" fill="#FF9E24"/>
<path d="M135.725 112.688C133.958 114.675 131.529 116 128.879 116H48.0539C45.183 116 42.7539 114.675 41.208 112.688C41.4289 112.246 41.8705 112.025 42.0914 111.804L82.5039 76.4707C85.8164 73.3791 91.1164 73.3791 94.4289 76.4707L134.841 111.804C135.062 112.025 135.504 112.467 135.725 112.688Z" fill="#FFB14D"/>
<path d="M69.3337 50.1453L60.1455 50L60.0002 59.1882L69.1884 59.3336L69.3337 50.1453Z" fill="white"/>
<path d="M85.4001 50.4051L76.2119 50.2598L76.0666 59.448L85.2548 59.5933L85.4001 50.4051Z" fill="white"/>
<path d="M101.995 50.6668L92.8066 50.5215L92.6613 59.7097L101.85 59.855L101.995 50.6668Z" fill="white"/>
<path d="M118 50.4119L108.812 50.2666L108.666 59.4548L117.854 59.6002L118 50.4119Z" fill="white"/>
</svg>
