<svg width="88" height="90" viewBox="0 0 88 90" fill="none" xmlns="http://www.w3.org/2000/svg">
<g clip-path="url(#clip0_403_5359)">
<g filter="url(#filter0_d_403_5359)">
<path d="M53.182 24.3881C55.1359 26.1467 57.4019 27.6425 59.6945 29.0102C64.3763 31.8021 69.4687 34.2739 73.135 38.2817C73.135 38.2817 88.9073 55.4977 73.213 72.4035C63.1777 83.2108 45.964 82.5176 34.0338 76.4039C21.1658 69.807 11.0471 57.6876 9.21687 43.6614C8.22391 36.0824 10.0705 27.9868 14.5215 21.3621C18.8492 14.9311 26.2639 8.9462 34.5739 8.60254C38.4133 8.43297 42.2547 9.57833 44.8089 12.2977C48.2596 15.9713 49.3316 20.9189 53.182 24.3881Z" fill="#FEE1D1"/>
</g>
</g>
<g clip-path="url(#clip1_403_5359)">
<g filter="url(#filter1_d_403_5359)">
<path d="M23.3165 28.063C25.7786 26.425 28.0267 24.3946 30.1385 22.3055C34.4497 18.0388 38.5079 13.2622 43.9188 10.3589C43.9188 10.3589 67.1682 -2.13694 82.0579 18.4802C91.5757 31.6626 86.4178 49.6511 76.5497 60.764C65.903 72.7498 49.7871 80.5082 33.6517 79.0664C24.932 78.2915 16.3582 74.3976 10.0909 68.1105C4.00848 61.9999 -0.789324 52.7408 0.942945 43.8936C1.73123 39.8036 3.98901 36.0273 7.67739 33.9872C12.6601 31.2311 18.4603 31.2899 23.3165 28.063Z" fill="#FFF0E8"/>
</g>
</g>
<path d="M61.6797 53.1754H49.3946C48.9225 53.1754 48.5361 52.7955 48.5361 52.3311V49.9419C48.5361 49.4776 48.9225 49.0977 49.3946 49.0977H61.6797C62.1519 49.0977 62.5382 49.4776 62.5382 49.9419V52.3311C62.5382 52.7955 62.1519 53.1754 61.6797 53.1754Z" fill="#F47833"/>
<path d="M40.157 30.845C40.2944 30.2793 40.6721 29.7896 41.0842 29.3844C41.1958 29.2662 41.316 29.1565 41.4448 29.0551C41.4448 29.0551 42.6982 28.1011 42.6982 28.0927L43.9258 27.0965C44.0546 27.0036 44.192 26.9107 44.3293 26.8263C44.8273 26.5308 45.3939 26.2691 45.9862 26.2691C46.8876 26.2607 47.5487 26.9614 47.8663 27.7297C48.0294 28.1349 47.8062 28.5655 47.9264 28.9792C48.038 29.3422 48.3042 29.6292 48.6476 29.7896C49.0253 29.9754 49.446 29.7981 49.8323 29.9585C50.1757 30.0936 50.4246 30.3891 50.6478 30.6677C50.9054 30.9885 51.1715 31.3008 51.4291 31.6132C51.9957 32.2886 52.5623 32.9725 53.1375 33.6479C53.3092 33.8505 53.4809 34.0531 53.6011 34.2895C53.8329 34.7538 53.6354 35.1422 53.7041 35.615C53.7814 36.1468 54.0475 36.6618 54.5883 36.8476C54.9403 36.9658 55.3266 36.8813 55.6443 37.0924C56.3397 37.5567 56.8977 38.3419 56.7002 39.203C56.5715 39.7687 56.2023 40.2668 55.7988 40.6805C55.6872 40.7987 55.567 40.9084 55.4468 41.0182C55.4468 41.0182 54.202 41.9891 54.2106 41.9975L53.0001 43.0106C52.8713 43.1035 52.734 43.1963 52.5966 43.2892C52.1073 43.6016 51.5407 43.8633 50.9483 43.8717C50.0469 43.8886 49.3687 43.2048 49.051 42.4449C48.9051 42.0904 49.0596 41.7358 49.0081 41.3728C48.948 40.8915 48.5789 40.5454 48.1668 40.3259C47.7118 40.081 47.1452 40.233 46.7159 39.9122C46.5013 39.7518 46.3296 39.5492 46.1579 39.3466C45.5827 38.6712 45.0075 37.9958 44.4409 37.3288C44.1748 37.0164 43.9087 36.704 43.6425 36.4001C43.4107 36.13 43.1618 35.8345 43.0845 35.4799C43.0244 35.2097 43.1446 34.9565 43.1704 34.6863C43.2047 34.3655 43.0588 33.994 42.8785 33.7238C42.7325 33.5043 42.5179 33.3355 42.2689 33.2511C41.917 33.1244 41.5306 33.2089 41.213 32.9893C40.4919 32.4997 39.951 31.7061 40.157 30.845Z" fill="#F47833"/>
<path d="M44.5963 40.4271C44.5276 40.2498 44.3645 40.0894 44.2271 39.9543C43.8494 39.566 43.506 39.1354 43.1626 38.7217C42.9394 38.46 42.7076 38.1983 42.493 37.9281C42.3385 37.734 42.1839 37.4385 41.9006 37.4131C41.6087 37.3878 41.3598 37.6073 41.1623 37.7931C40.9563 37.9872 40.7245 38.1308 40.5185 38.3249C39.9948 38.8315 39.969 39.6673 39.5398 40.2329C39.1534 40.7479 38.6298 41.1954 38.1576 41.6259C37.7026 42.0396 37.239 42.4449 36.7582 42.8332C36.0714 43.3735 35.3503 43.9223 34.5605 44.3107C33.453 44.8425 32.3284 45.3406 31.2896 45.9823C30.4998 46.4719 29.7272 46.9869 28.9975 47.5526C28.2248 48.152 27.4693 48.8021 26.877 49.5788C26.4391 50.1529 26.0185 50.9043 26.1902 51.6472C26.2503 51.9089 26.3876 52.1537 26.5679 52.3564C26.7997 52.6265 26.9972 52.8545 27.3406 52.998C28.242 53.3863 29.2722 53.0233 30.0792 52.5928C32.1739 51.4783 33.8737 49.5366 35.316 47.7214C36.2431 46.5564 37.2132 45.3829 38.3293 44.3866C38.8444 43.9139 39.3852 43.4749 39.969 43.0949C40.5013 42.7404 41.1366 42.3182 41.7719 42.1832C42.038 42.1241 42.3127 42.1241 42.5874 42.0818C42.9566 42.0227 43.2742 41.8623 43.5661 41.6428C43.8838 41.4064 44.4074 41.1278 44.5791 40.7733C44.6392 40.6551 44.6392 40.5369 44.5963 40.4271Z" fill="#F47833"/>
<path d="M62.6755 56.4425H48.4073C47.9352 56.4425 47.5488 56.0626 47.5488 55.5982V53.209C47.5488 52.7447 47.9352 52.3647 48.4073 52.3647H62.6755C63.1477 52.3647 63.534 52.7447 63.534 53.209V55.5982C63.534 56.0626 63.1477 56.4425 62.6755 56.4425Z" fill="#EC671D"/>
<defs>
<filter id="filter0_d_403_5359" x="-11.0449" y="-2.41357" width="111.213" height="112.224" filterUnits="userSpaceOnUse" color-interpolation-filters="sRGB">
<feFlood flood-opacity="0" result="BackgroundImageFix"/>
<feColorMatrix in="SourceAlpha" type="matrix" values="0 0 0 0 0 0 0 0 0 0 0 0 0 0 0 0 0 0 127 0" result="hardAlpha"/>
<feOffset dy="9"/>
<feGaussianBlur stdDeviation="10"/>
<feColorMatrix type="matrix" values="0 0 0 0 0 0 0 0 0 0 0 0 0 0 0 0 0 0 0.03 0"/>
<feBlend mode="normal" in2="BackgroundImageFix" result="effect1_dropShadow_403_5359"/>
<feBlend mode="normal" in="SourceGraphic" in2="effect1_dropShadow_403_5359" result="shape"/>
</filter>
<filter id="filter1_d_403_5359" x="-19.415" y="-4.39307" width="126.515" height="112.631" filterUnits="userSpaceOnUse" color-interpolation-filters="sRGB">
<feFlood flood-opacity="0" result="BackgroundImageFix"/>
<feColorMatrix in="SourceAlpha" type="matrix" values="0 0 0 0 0 0 0 0 0 0 0 0 0 0 0 0 0 0 127 0" result="hardAlpha"/>
<feOffset dy="9"/>
<feGaussianBlur stdDeviation="10"/>
<feColorMatrix type="matrix" values="0 0 0 0 0 0 0 0 0 0 0 0 0 0 0 0 0 0 0.03 0"/>
<feBlend mode="normal" in2="BackgroundImageFix" result="effect1_dropShadow_403_5359"/>
<feBlend mode="normal" in="SourceGraphic" in2="effect1_dropShadow_403_5359" result="shape"/>
</filter>
<clipPath id="clip0_403_5359">
<rect width="75.5067" height="67.1421" fill="white" transform="translate(68.1152 0.634277) rotate(77.1588)"/>
</clipPath>
<clipPath id="clip1_403_5359">
<rect width="86.5161" height="72.6308" fill="white" transform="translate(0.583008 6.60205)"/>
</clipPath>
</defs>
</svg>
