<svg width="91" height="83" viewBox="0 0 91 83" fill="none" xmlns="http://www.w3.org/2000/svg">
<rect y="0.233154" width="90.9786" height="82.7078" rx="2" fill="white" fill-opacity="0.08"/>
<path d="M68.4209 59.2404H50.4826C49.7931 59.2404 49.229 58.6641 49.229 57.9598V54.3358C49.229 53.6314 49.7931 53.0552 50.4826 53.0552H68.4209C69.1104 53.0552 69.6745 53.6314 69.6745 54.3358V57.9598C69.6745 58.6641 69.1104 59.2404 68.4209 59.2404Z" fill="white"/>
<path d="M36.9948 25.3698C37.1954 24.5118 37.7469 23.7691 38.3486 23.1544C38.5116 22.9751 38.6871 22.8086 38.8751 22.655C38.8751 22.655 40.7053 21.2079 40.7053 21.1951L42.4979 19.684C42.6859 19.5432 42.8865 19.4023 43.0871 19.2742C43.8141 18.826 44.6415 18.4291 45.5064 18.4291C46.8226 18.4163 47.7879 19.4791 48.2517 20.6445C48.4899 21.2591 48.164 21.9122 48.3395 22.5397C48.5024 23.0904 48.891 23.5258 49.3924 23.7691C49.944 24.0508 50.5582 23.7819 51.1223 24.0252C51.6238 24.2301 51.9873 24.6783 52.3132 25.1009C52.6893 25.5875 53.0779 26.0613 53.454 26.5351C54.2813 27.5596 55.1086 28.5968 55.9485 29.6213C56.1992 29.9286 56.4499 30.236 56.6254 30.5945C56.9639 31.2988 56.6756 31.8879 56.7759 32.605C56.8887 33.4118 57.2773 34.1929 58.067 34.4747C58.581 34.654 59.1451 34.5259 59.6089 34.846C60.6243 35.5504 61.4391 36.7413 61.1508 38.0475C60.9627 38.9055 60.4237 39.661 59.8345 40.2885C59.6716 40.4678 59.4961 40.6342 59.3206 40.8007C59.3206 40.8007 57.5029 42.2734 57.5155 42.2862L55.748 43.8229C55.5599 43.9637 55.3594 44.1046 55.1588 44.2455C54.4443 44.7193 53.6169 45.1163 52.752 45.1291C51.4357 45.1547 50.4454 44.1174 49.9816 42.9649C49.7685 42.427 49.9941 41.8892 49.9189 41.3386C49.8312 40.6086 49.2922 40.0836 48.6904 39.7506C48.0261 39.3793 47.1987 39.6098 46.5719 39.1232C46.2586 38.8799 46.0078 38.5725 45.7571 38.2652C44.9172 37.2407 44.0774 36.2163 43.25 35.2046C42.8614 34.7308 42.4728 34.257 42.0842 33.796C41.7458 33.3862 41.3822 32.938 41.2694 32.4001C41.1817 31.9904 41.3572 31.6062 41.3948 31.1964C41.4449 30.7098 41.2318 30.1463 40.9686 29.7365C40.7554 29.4036 40.4421 29.1475 40.0785 29.0194C39.5646 28.8273 39.0005 28.9554 38.5367 28.6224C37.4837 27.8797 36.6939 26.676 36.9948 25.3698Z" fill="white"/>
<path d="M43.4751 39.9045C43.3748 39.6356 43.1366 39.3923 42.9361 39.1874C42.3845 38.5983 41.8831 37.9452 41.3817 37.3178C41.0557 36.9208 40.7173 36.5238 40.4039 36.114C40.1782 35.8195 39.9526 35.3713 39.5389 35.3329C39.1127 35.2945 38.7492 35.6274 38.4609 35.9091C38.16 36.2037 37.8216 36.4214 37.5207 36.7159C36.756 37.4842 36.7184 38.752 36.0917 39.61C35.5276 40.3911 34.7629 41.0699 34.0734 41.7229C33.409 42.3504 32.7321 42.9651 32.0301 43.5542C31.0273 44.3737 29.9743 45.2061 28.821 45.7952C27.204 46.6019 25.5618 47.3575 24.045 48.3307C22.8917 49.0734 21.7635 49.8546 20.698 50.7126C19.5698 51.6218 18.4667 52.6078 17.6017 53.786C16.9624 54.6568 16.3482 55.7965 16.5989 56.9234C16.6866 57.3203 16.8872 57.6917 17.1504 57.9991C17.4889 58.4088 17.7772 58.7546 18.2786 58.9723C19.5949 59.5614 21.0991 59.0107 22.2775 58.3576C25.3362 56.6673 27.8182 53.7219 29.9242 50.9687C31.278 49.2015 32.6945 47.4215 34.3241 45.9104C35.0763 45.1933 35.866 44.5274 36.7184 43.9511C37.4956 43.4133 38.4233 42.773 39.3509 42.5681C39.7395 42.4785 40.1406 42.4785 40.5418 42.4145C41.0808 42.3248 41.5446 42.0815 41.9708 41.7486C42.4346 41.39 43.1993 40.9674 43.45 40.4296C43.5378 40.2503 43.5378 40.071 43.4751 39.9045Z" fill="white"/>
<path d="M69.8747 64.1964H49.0407C48.3512 64.1964 47.7871 63.6201 47.7871 62.9158V59.2918C47.7871 58.5875 48.3512 58.0112 49.0407 58.0112H69.8747C70.5642 58.0112 71.1283 58.5875 71.1283 59.2918V62.9158C71.1283 63.6201 70.5642 64.1964 69.8747 64.1964Z" fill="white" fill-opacity="0.8"/>
</svg>
