<svg width="91" height="83" viewBox="0 0 91 83" fill="none" xmlns="http://www.w3.org/2000/svg">
<rect width="90.9786" height="82.7078" rx="2" fill="white" fill-opacity="0.08"/>
<g opacity="0.76">
<path fill-rule="evenodd" clip-rule="evenodd" d="M53.139 61.0778H40.6406C39.167 61.0778 37.6897 61.0946 36.2111 61.1115H36.2108C33.25 61.1452 30.2841 61.1789 27.3332 61.0778C25.319 61.0104 23.7936 59.5194 23.7177 57.4978C23.7121 57.3068 23.714 57.1159 23.7159 56.925C23.7168 56.8295 23.7177 56.734 23.7177 56.6386V50.9611V33.0188V26.0273C23.7177 25.7947 23.7121 25.5558 23.7063 25.3136C23.677 24.0814 23.6455 22.7618 24.3498 21.7481C25.473 20.1389 27.2483 20.1657 28.9721 20.1916C29.1884 20.1949 29.4039 20.1981 29.6172 20.1981H37.4971H52.6502C54.951 20.1981 56.6955 21.6133 56.7208 24.0224C56.732 25.0277 56.7283 26.0329 56.7245 27.0381C56.7226 27.5407 56.7208 28.0433 56.7208 28.5459V46.1091C56.7208 47.3689 56.7357 48.6306 56.7507 49.8929L56.7507 49.8938V49.8938V49.8939V49.8939C56.7807 52.421 56.8107 54.9505 56.7208 57.4725C56.6534 59.4773 55.1616 61.0104 53.139 61.0778ZM50.2825 26.4217H30.1655C29.2047 26.4217 28.4378 27.1696 28.4378 28.0874C28.4378 29.0053 29.2131 29.7532 30.1655 29.7532H50.2825C51.2348 29.7532 52.0102 29.0053 52.0102 28.0874C52.0102 27.1696 51.2348 26.4217 50.2825 26.4217ZM30.1655 43.4962H50.2825C51.2348 43.4962 52.0102 44.2441 52.0102 45.1619C52.0102 46.0798 51.2348 46.8277 50.2825 46.8277H30.1655C29.2131 46.8277 28.4378 46.0798 28.4378 45.1619C28.4378 44.2441 29.2047 43.4962 30.1655 43.4962ZM50.2844 35.0001H30.1674C29.2066 35.0001 28.4397 35.748 28.4397 36.6658C28.4397 37.5837 29.2151 38.3316 30.1674 38.3316H50.2844C51.2368 38.3316 52.0121 37.5837 52.0121 36.6658C52.0121 35.748 51.2368 35.0001 50.2844 35.0001Z" fill="white"/>
</g>
<path fill-rule="evenodd" clip-rule="evenodd" d="M44 63.1897L56.8732 67.3261C59.0824 68.0325 61.4686 66.8132 62.1769 64.61L70.9967 37.3143C71.7049 35.1112 70.4112 30.9237 68.202 30.209L58.9546 28V35.3031L64.9763 37.2387C65.8701 37.5246 66.4013 38.3823 66.1483 39.1475C65.9038 39.9127 64.9763 40.2996 64.0741 40.0136L58.9546 38.3681V42.1371L62.7081 43.3436C63.6019 43.6295 64.1247 44.4872 63.8801 45.2525C63.6356 46.0177 62.7081 46.4045 61.8059 46.1186L58.9546 45.2021V49.2153L60.4652 49.7008C61.359 49.9867 61.8902 50.8445 61.6373 51.6097C61.3927 52.3749 60.4652 52.7617 59.563 52.4758L58.9546 52.2802V59.1897C58.9546 61.3989 57.1637 63.1897 54.9546 63.1897H44Z" fill="url(#paint0_linear_208_145)"/>
<path fill-rule="evenodd" clip-rule="evenodd" d="M44 63.1897L56.8732 67.3261C59.0824 68.0325 61.4686 66.8132 62.1769 64.61L70.9967 37.3143C71.7049 35.1112 70.4112 30.9237 68.202 30.209L58.9546 28V35.3031L64.9763 37.2387C65.8701 37.5246 66.4013 38.3823 66.1483 39.1475C65.9038 39.9127 64.9763 40.2996 64.0741 40.0136L58.9546 38.3681V42.1371L62.7081 43.3436C63.6019 43.6295 64.1247 44.4872 63.8801 45.2525C63.6356 46.0177 62.7081 46.4045 61.8059 46.1186L58.9546 45.2021V49.2153L60.4652 49.7008C61.359 49.9867 61.8902 50.8445 61.6373 51.6097C61.3927 52.3749 60.4652 52.7617 59.563 52.4758L58.9546 52.2802V59.1897C58.9546 61.3989 57.1637 63.1897 54.9546 63.1897H44Z" fill="url(#paint1_linear_208_145)"/>
<defs>
<linearGradient id="paint0_linear_208_145" x1="51.7251" y1="24.845" x2="51.7251" y2="67.5267" gradientUnits="userSpaceOnUse">
<stop stop-color="white"/>
<stop offset="1" stop-color="white" stop-opacity="0"/>
</linearGradient>
<linearGradient id="paint1_linear_208_145" x1="51.7251" y1="24.845" x2="51.7251" y2="67.5267" gradientUnits="userSpaceOnUse">
<stop stop-color="#DDDDDD"/>
<stop offset="1" stop-color="white" stop-opacity="0"/>
</linearGradient>
</defs>
</svg>
