<svg width="92" height="94" viewBox="0 0 92 94" fill="none" xmlns="http://www.w3.org/2000/svg">
<g clip-path="url(#clip0_403_5419)">
<g filter="url(#filter0_d_403_5419)">
<path d="M55.5512 25.4253C57.6016 27.2707 59.9795 28.8403 62.3853 30.2756C67.2983 33.2054 72.6422 35.7992 76.4896 40.0049C76.4896 40.0049 93.0407 58.0711 76.5714 75.8118C66.0405 87.1527 47.9768 86.4254 35.4574 80.0097C21.9539 73.087 11.3355 60.3692 9.41494 45.6503C8.37294 37.6971 10.3107 29.2017 14.9815 22.2499C19.523 15.5012 27.3038 9.22078 36.0242 8.86014C40.0531 8.68221 44.0843 9.88413 46.7647 12.7378C50.3857 16.5928 51.5106 21.7847 55.5512 25.4253Z" fill="#D4ECFB"/>
</g>
</g>
<g clip-path="url(#clip1_403_5419)">
<g filter="url(#filter1_d_403_5419)">
<path d="M24.2793 29.7392C26.8631 28.0203 29.2222 25.8898 31.4383 23.6974C35.9624 19.2201 40.2209 14.2075 45.8991 11.1609C45.8991 11.1609 70.2966 -1.95204 85.9216 19.6832C95.9093 33.5167 90.4967 52.3935 80.1413 64.0551C68.9689 76.6328 52.0572 84.7744 35.1249 83.2613C25.9746 82.4482 16.9774 78.362 10.4006 71.7644C4.01787 65.352 -1.01686 55.6357 0.800955 46.3517C1.62816 42.0596 3.99745 38.0969 7.86796 35.956C13.0967 33.0638 19.1833 33.1255 24.2793 29.7392Z" fill="#E9F6FF"/>
</g>
<path d="M68.4983 36.5645L49.6581 30.4408C47.7389 29.8203 45.6659 30.8914 45.0506 32.8268L37.3813 56.8116C36.7659 58.7469 37.8281 60.8374 39.7473 61.4579L58.5947 67.5815C60.5139 68.202 62.5869 67.1309 63.2022 65.1956L70.8643 41.2181C71.4796 39.2828 70.4174 37.1923 68.4983 36.5645ZM62.7334 53.7757C62.521 54.4478 61.7152 54.7876 60.9314 54.5365L44.5452 49.2106C43.7687 48.9595 43.3073 48.206 43.527 47.5338C43.7468 46.8616 44.5452 46.5218 45.329 46.773L61.7152 52.0989C62.4917 52.35 62.9532 53.1035 62.7334 53.7757ZM64.6819 48.1912C64.4694 48.8634 63.6637 49.2032 62.8799 48.9521L46.4937 43.6262C45.7172 43.3751 45.2557 42.6216 45.4755 41.9494C45.6952 41.2772 46.4937 40.9374 47.2775 41.1886L63.6637 46.5145C64.4402 46.7656 64.8943 47.5191 64.6819 48.1912ZM66.6523 42.8285C66.4399 43.5006 65.6341 43.8404 64.8504 43.5893L48.4641 38.2634C47.6877 38.0123 47.2262 37.2588 47.4459 36.5866C47.6584 35.9144 48.4641 35.5746 49.2479 35.8258L65.6341 41.1517C66.4106 41.4028 66.8721 42.1563 66.6523 42.8285Z" fill="#1368B6"/>
<path d="M57.3854 64.9297H34.9267C32.9123 64.9297 31.2642 63.2676 31.2642 61.2363V31.667C31.2642 29.6357 32.9123 27.9736 34.9267 27.9736H57.3854C59.3998 27.9736 61.048 29.6357 61.048 31.667V61.2363C61.048 63.2676 59.3998 64.9297 57.3854 64.9297Z" fill="#1F86E5"/>
<path d="M57.3856 64.3755C53.767 64.3755 50.141 64.3755 46.5224 64.3755C42.6768 64.3755 38.8018 64.5084 34.9561 64.3755C33.2054 64.3164 31.8796 63.0089 31.8137 61.2361C31.8063 60.9849 31.8137 60.7338 31.8137 60.4826C31.8137 58.8206 31.8137 57.166 31.8137 55.504C31.8137 50.2593 31.8137 45.0147 31.8137 39.7701C31.8137 37.724 31.8137 35.6852 31.8137 33.6391C31.8137 32.3981 31.6305 30.9503 32.363 29.8866C33.4618 28.2985 35.2784 28.5275 36.9412 28.5275C39.2267 28.5275 41.5048 28.5275 43.7902 28.5275C48.1779 28.5275 52.573 28.5275 56.9607 28.5275C58.9605 28.5275 60.4767 29.7684 60.4987 31.8811C60.5134 33.2033 60.4987 34.5255 60.4987 35.8478C60.4987 40.9816 60.4987 46.1154 60.4987 51.2492C60.4987 54.5658 60.6159 57.8973 60.4987 61.2139C60.4401 62.972 59.1436 64.3164 57.3856 64.3755C56.6824 64.3976 56.675 65.5057 57.3856 65.4835C60.0299 65.3949 61.5975 63.2896 61.5975 60.7633C61.5975 59.153 61.5975 57.5501 61.5975 55.9398C61.5975 50.4366 61.5975 44.9409 61.5975 39.4377C61.5975 37.3768 61.5975 35.3233 61.5975 33.2624C61.5975 31.7555 61.6781 30.2855 60.6745 29.015C59.3633 27.3677 57.554 27.4121 55.6935 27.4121C53.3641 27.4121 51.0347 27.4121 48.7053 27.4121C44.1931 27.4121 39.6735 27.3825 35.1612 27.4121C32.7 27.4342 30.7808 29.1997 30.7149 31.7185C30.6856 32.9226 30.7149 34.1266 30.7149 35.3233C30.7149 40.6861 30.7149 46.0563 30.7149 51.4191C30.7149 53.7459 30.7149 56.0801 30.7149 58.407C30.7149 59.4633 30.6416 60.5491 30.7369 61.6054C30.898 63.3487 32.136 64.8556 33.8134 65.3284C34.3994 65.4909 35.0001 65.4835 35.6007 65.4835C37.5785 65.4835 39.549 65.4835 41.5267 65.4835C46.4931 65.4835 51.4596 65.4835 56.426 65.4835C56.7483 65.4835 57.0706 65.4835 57.3929 65.4835C58.0961 65.4835 58.0961 64.3755 57.3856 64.3755Z" fill="#1F86E5"/>
<path d="M37.4177 33.9272H54.9027C55.7304 33.9272 56.4043 34.5773 56.4043 35.3751C56.4043 36.1728 55.7304 36.8229 54.9027 36.8229H37.4177C36.5899 36.8229 35.916 36.1728 35.916 35.3751C35.916 34.5773 36.5826 33.9272 37.4177 33.9272Z" fill="white"/>
<path d="M37.4177 41.3433H54.9027C55.7304 41.3433 56.4043 41.9933 56.4043 42.7911C56.4043 43.5888 55.7304 44.2389 54.9027 44.2389H37.4177C36.5899 44.2389 35.916 43.5888 35.916 42.7911C35.916 41.9933 36.5826 41.3433 37.4177 41.3433Z" fill="white"/>
<path d="M37.4177 48.7671H54.9027C55.7304 48.7671 56.4043 49.4171 56.4043 50.2149C56.4043 51.0127 55.7304 51.6627 54.9027 51.6627H37.4177C36.5899 51.6627 35.916 51.0127 35.916 50.2149C35.916 49.4171 36.5826 48.7671 37.4177 48.7671Z" fill="white"/>
</g>
<defs>
<filter id="filter0_d_403_5419" x="-10.8599" y="-2.15723" width="114.73" height="115.791" filterUnits="userSpaceOnUse" color-interpolation-filters="sRGB">
<feFlood flood-opacity="0" result="BackgroundImageFix"/>
<feColorMatrix in="SourceAlpha" type="matrix" values="0 0 0 0 0 0 0 0 0 0 0 0 0 0 0 0 0 0 127 0" result="hardAlpha"/>
<feOffset dy="9"/>
<feGaussianBlur stdDeviation="10"/>
<feColorMatrix type="matrix" values="0 0 0 0 0 0 0 0 0 0 0 0 0 0 0 0 0 0 0.03 0"/>
<feBlend mode="normal" in2="BackgroundImageFix" result="effect1_dropShadow_403_5419"/>
<feBlend mode="normal" in="SourceGraphic" in2="effect1_dropShadow_403_5419" result="shape"/>
</filter>
<filter id="filter1_d_403_5419" x="-19.5747" y="-3.77637" width="130.788" height="116.218" filterUnits="userSpaceOnUse" color-interpolation-filters="sRGB">
<feFlood flood-opacity="0" result="BackgroundImageFix"/>
<feColorMatrix in="SourceAlpha" type="matrix" values="0 0 0 0 0 0 0 0 0 0 0 0 0 0 0 0 0 0 127 0" result="hardAlpha"/>
<feOffset dy="9"/>
<feGaussianBlur stdDeviation="10"/>
<feColorMatrix type="matrix" values="0 0 0 0 0 0 0 0 0 0 0 0 0 0 0 0 0 0 0.03 0"/>
<feBlend mode="normal" in2="BackgroundImageFix" result="effect1_dropShadow_403_5419"/>
<feBlend mode="normal" in="SourceGraphic" in2="effect1_dropShadow_403_5419" result="shape"/>
</filter>
<clipPath id="clip0_403_5419">
<rect width="79.2354" height="70.4577" fill="white" transform="translate(71.2217 0.498535) rotate(77.1588)"/>
</clipPath>
<clipPath id="clip1_403_5419">
<rect width="90.7885" height="76.2175" fill="white" transform="translate(0.35498 6.76074)"/>
</clipPath>
</defs>
</svg>
