<svg width="88" height="89" viewBox="0 0 88 89" fill="none" xmlns="http://www.w3.org/2000/svg">
<g clip-path="url(#clip0_403_5374)">
<g filter="url(#filter0_d_403_5374)">
<path d="M53.182 23.9799C55.1359 25.7385 57.4019 27.2343 59.6945 28.602C64.3763 31.3939 69.4687 33.8657 73.135 37.8735C73.135 37.8735 88.9073 55.0895 73.213 71.9953C63.1777 82.8025 45.964 82.1094 34.0338 75.9957C21.1658 69.3988 11.0471 57.2794 9.21687 43.2532C8.22391 35.6742 10.0705 27.5786 14.5215 20.9539C18.8492 14.5229 26.2639 8.53799 34.5739 8.19433C38.4133 8.02477 42.2547 9.17013 44.8089 11.8895C48.2596 15.5631 49.3316 20.5107 53.182 23.9799Z" fill="#FFB8C4"/>
</g>
</g>
<g clip-path="url(#clip1_403_5374)">
<g filter="url(#filter1_d_403_5374)">
<path d="M23.3165 27.6548C25.7786 26.0168 28.0267 23.9864 30.1385 21.8973C34.4497 17.6306 38.5079 12.854 43.9188 9.95069C43.9188 9.95069 67.1682 -2.54515 82.0579 18.072C91.5757 31.2544 86.4178 49.2429 76.5497 60.3558C65.903 72.3416 49.7871 80.1 33.6517 78.6582C24.932 77.8833 16.3582 73.9894 10.0909 67.7023C4.00848 61.5917 -0.789324 52.3326 0.942945 43.4854C1.73123 39.3954 3.98901 35.6191 7.67739 33.579C12.6601 30.8229 18.4603 30.8817 23.3165 27.6548Z" fill="#FEE1E6"/>
</g>
</g>
<g clip-path="url(#clip2_403_5374)">
<path d="M35.9583 30.3237H31.334C30.2455 30.3237 29.355 31.212 29.355 32.2978V61.27C29.355 62.3557 30.2455 63.244 31.334 63.244H35.9583C37.0467 63.244 37.9373 62.3557 37.9373 61.27V32.2978C37.9373 31.212 37.0467 30.3237 35.9583 30.3237ZM33.6494 60.9739C32.594 60.9739 31.743 60.1185 31.743 59.0722C31.743 58.026 32.6006 57.1706 33.6494 57.1706C34.6983 57.1706 35.5559 58.026 35.5559 59.0722C35.5559 60.1185 34.6983 60.9739 33.6494 60.9739ZM36.1364 38.2001H31.1625C30.7601 38.2001 30.4236 37.8711 30.4236 37.4631C30.4236 37.0552 30.7535 36.7262 31.1625 36.7262H36.1364C36.5388 36.7262 36.8752 37.0552 36.8752 37.4631C36.8752 37.8711 36.5388 38.2001 36.1364 38.2001ZM36.1364 35.4299H31.1625C30.7601 35.4299 30.4236 35.1009 30.4236 34.6929C30.4236 34.285 30.7535 33.956 31.1625 33.956H36.1364C36.5388 33.956 36.8752 34.285 36.8752 34.6929C36.8752 35.1009 36.5388 35.4299 36.1364 35.4299Z" fill="#E30F34"/>
<path d="M47.0672 30.3237H42.4429C41.3544 30.3237 40.4639 31.212 40.4639 32.2978V61.27C40.4639 62.3557 41.3544 63.244 42.4429 63.244H47.0672C48.1556 63.244 49.0462 62.3557 49.0462 61.27V32.2978C49.0462 31.212 48.1556 30.3237 47.0672 30.3237ZM44.7517 60.9739C43.6963 60.9739 42.8453 60.1185 42.8453 59.0722C42.8453 58.026 43.7028 57.1706 44.7517 57.1706C45.8006 57.1706 46.6582 58.026 46.6582 59.0722C46.6582 60.1185 45.8072 60.9739 44.7517 60.9739ZM47.2387 38.2001H42.2648C41.8624 38.2001 41.5259 37.8711 41.5259 37.4631C41.5259 37.0552 41.8558 36.7262 42.2648 36.7262H47.2387C47.6411 36.7262 47.9775 37.0552 47.9775 37.4631C47.9775 37.8711 47.6411 38.2001 47.2387 38.2001ZM47.2387 35.4299H42.2648C41.8624 35.4299 41.5259 35.1009 41.5259 34.6929C41.5259 34.285 41.8558 33.956 42.2648 33.956H47.2387C47.6411 33.956 47.9775 34.285 47.9775 34.6929C47.9775 35.1009 47.6411 35.4299 47.2387 35.4299Z" fill="#E30F34"/>
<path d="M66.6526 59.2957L58.3144 31.5408C58.0043 30.5012 56.8961 29.9024 55.8538 30.2182L51.4208 31.5408C50.3785 31.8501 49.7782 32.9555 50.0949 33.9952L58.4331 61.7501C58.7432 62.7897 59.8514 63.3885 60.8937 63.0727L65.3267 61.7501C66.3689 61.4408 66.9692 60.3354 66.6526 59.2957ZM51.81 35.989C51.6913 35.6007 51.9156 35.1928 52.3048 35.0743L57.0676 33.653C57.4568 33.5346 57.8658 33.7583 57.9845 34.1465C58.1033 34.5348 57.879 34.9427 57.4898 35.0612L52.727 36.4825C52.3378 36.5943 51.9222 36.3772 51.81 35.989ZM58.288 37.713L53.5252 39.1343C53.136 39.2527 52.727 39.029 52.6082 38.6407C52.4895 38.2525 52.7138 37.8446 53.103 37.7261L57.8658 36.3048C58.255 36.1864 58.664 36.4101 58.7827 36.7983C58.8949 37.1865 58.6706 37.5945 58.288 37.713ZM62.4571 60.2367C61.4478 60.5394 60.3857 59.9669 60.0823 58.9601C59.7788 57.9534 60.3528 56.894 61.3621 56.5913C62.3713 56.2886 63.4334 56.8611 63.7369 57.8678C64.0403 58.8746 63.4664 59.9406 62.4571 60.2367Z" fill="#E30F34"/>
</g>
<defs>
<filter id="filter0_d_403_5374" x="-11.0449" y="-2.82178" width="111.213" height="112.224" filterUnits="userSpaceOnUse" color-interpolation-filters="sRGB">
<feFlood flood-opacity="0" result="BackgroundImageFix"/>
<feColorMatrix in="SourceAlpha" type="matrix" values="0 0 0 0 0 0 0 0 0 0 0 0 0 0 0 0 0 0 127 0" result="hardAlpha"/>
<feOffset dy="9"/>
<feGaussianBlur stdDeviation="10"/>
<feColorMatrix type="matrix" values="0 0 0 0 0 0 0 0 0 0 0 0 0 0 0 0 0 0 0.03 0"/>
<feBlend mode="normal" in2="BackgroundImageFix" result="effect1_dropShadow_403_5374"/>
<feBlend mode="normal" in="SourceGraphic" in2="effect1_dropShadow_403_5374" result="shape"/>
</filter>
<filter id="filter1_d_403_5374" x="-19.415" y="-4.80127" width="126.515" height="112.631" filterUnits="userSpaceOnUse" color-interpolation-filters="sRGB">
<feFlood flood-opacity="0" result="BackgroundImageFix"/>
<feColorMatrix in="SourceAlpha" type="matrix" values="0 0 0 0 0 0 0 0 0 0 0 0 0 0 0 0 0 0 127 0" result="hardAlpha"/>
<feOffset dy="9"/>
<feGaussianBlur stdDeviation="10"/>
<feColorMatrix type="matrix" values="0 0 0 0 0 0 0 0 0 0 0 0 0 0 0 0 0 0 0.03 0"/>
<feBlend mode="normal" in2="BackgroundImageFix" result="effect1_dropShadow_403_5374"/>
<feBlend mode="normal" in="SourceGraphic" in2="effect1_dropShadow_403_5374" result="shape"/>
</filter>
<clipPath id="clip0_403_5374">
<rect width="75.5067" height="67.1421" fill="white" transform="translate(68.1152 0.226074) rotate(77.1588)"/>
</clipPath>
<clipPath id="clip1_403_5374">
<rect width="86.5161" height="72.6308" fill="white" transform="translate(0.583008 6.19385)"/>
</clipPath>
<clipPath id="clip2_403_5374">
<rect width="37.3835" height="33.1111" fill="white" transform="translate(29.355 30.1328)"/>
</clipPath>
</defs>
</svg>
