<svg width="91" height="83" viewBox="0 0 91 83" fill="none" xmlns="http://www.w3.org/2000/svg">
<rect width="90.9786" height="82.7078" rx="2" fill="white" fill-opacity="0.08"/>
<path d="M30.5616 18.4531H24.2185C22.7255 18.4531 21.5039 19.6513 21.5039 21.1158V60.1952C21.5039 61.6597 22.7255 62.8579 24.2185 62.8579H30.5616C32.0547 62.8579 33.2762 61.6597 33.2762 60.1952V21.1158C33.2762 19.6513 32.0547 18.4531 30.5616 18.4531ZM27.3946 59.7958C25.9468 59.7958 24.7795 58.642 24.7795 57.2308C24.7795 55.8195 25.9559 54.6657 27.3946 54.6657C28.8333 54.6657 30.0097 55.8195 30.0097 57.2308C30.0097 58.642 28.8333 59.7958 27.3946 59.7958ZM30.8059 29.0773H23.9832C23.4313 29.0773 22.9698 28.6335 22.9698 28.0832C22.9698 27.5329 23.4222 27.0891 23.9832 27.0891H30.8059C31.3579 27.0891 31.8194 27.5329 31.8194 28.0832C31.8194 28.6335 31.3579 29.0773 30.8059 29.0773ZM30.8059 25.3406H23.9832C23.4313 25.3406 22.9698 24.8968 22.9698 24.3465C22.9698 23.7963 23.4222 23.3525 23.9832 23.3525H30.8059C31.3579 23.3525 31.8194 23.7963 31.8194 24.3465C31.8194 24.8968 31.3579 25.3406 30.8059 25.3406Z" fill="white"/>
<path d="M45.7994 18.4531H39.4563C37.9633 18.4531 36.7417 19.6513 36.7417 21.1158V60.1952C36.7417 61.6597 37.9633 62.8579 39.4563 62.8579H45.7994C47.2925 62.8579 48.514 61.6597 48.514 60.1952V21.1158C48.514 19.6513 47.2925 18.4531 45.7994 18.4531ZM42.6233 59.7958C41.1755 59.7958 40.0083 58.642 40.0083 57.2308C40.0083 55.8195 41.1846 54.6657 42.6233 54.6657C44.0621 54.6657 45.2384 55.8195 45.2384 57.2308C45.2384 58.642 44.0711 59.7958 42.6233 59.7958ZM46.0347 29.0773H39.212C38.66 29.0773 38.1985 28.6335 38.1985 28.0832C38.1985 27.5329 38.651 27.0891 39.212 27.0891H46.0347C46.5867 27.0891 47.0481 27.5329 47.0481 28.0832C47.0481 28.6335 46.5867 29.0773 46.0347 29.0773ZM46.0347 25.3406H39.212C38.66 25.3406 38.1985 24.8968 38.1985 24.3465C38.1985 23.7963 38.651 23.3525 39.212 23.3525H46.0347C46.5867 23.3525 47.0481 23.7963 47.0481 24.3465C47.0481 24.8968 46.5867 25.3406 46.0347 25.3406Z" fill="white"/>
<path d="M72.6652 57.5326L61.2276 20.0951C60.8024 18.6928 59.2822 17.8851 57.8525 18.3111L51.7718 20.0951C50.3421 20.5123 49.5187 22.0034 49.953 23.4058L61.3905 60.8432C61.8158 62.2455 63.336 63.0532 64.7657 62.6272L70.8464 60.8432C72.2761 60.426 73.0995 58.9349 72.6652 57.5326ZM52.3057 26.0951C52.1428 25.5714 52.4504 25.0211 52.9843 24.8614L59.5174 22.9442C60.0513 22.7845 60.6123 23.0862 60.7752 23.6099C60.9381 24.1336 60.6304 24.6838 60.0966 24.8436L53.5634 26.7607C53.0296 26.9116 52.4595 26.6187 52.3057 26.0951ZM61.1915 28.4205L54.6583 30.3376C54.1244 30.4974 53.5634 30.1956 53.4005 29.6719C53.2377 29.1483 53.5453 28.598 54.0792 28.4382L60.6123 26.5211C61.1462 26.3613 61.7072 26.6631 61.8701 27.1868C62.0239 27.7104 61.7163 28.2607 61.1915 28.4205ZM66.9102 58.8018C65.5258 59.2101 64.0689 58.4379 63.6527 57.0799C63.2365 55.7219 64.0237 54.293 65.4081 53.8847C66.7926 53.4764 68.2494 54.2486 68.6657 55.6066C69.0819 56.9645 68.2947 58.4024 66.9102 58.8018Z" fill="white"/>
<g clip-path="url(#clip0_208_132)" filter="url(#filter0_b_208_132)">
<path d="M31.9112 18.4531H25.5681C24.0751 18.4531 22.8535 19.6513 22.8535 21.1158V60.1952C22.8535 61.6597 24.0751 62.8579 25.5681 62.8579H31.9112C33.4043 62.8579 34.6258 61.6597 34.6258 60.1952V21.1158C34.6258 19.6513 33.4043 18.4531 31.9112 18.4531ZM28.7442 59.7958C27.2964 59.7958 26.1291 58.642 26.1291 57.2308C26.1291 55.8195 27.3055 54.6657 28.7442 54.6657C30.1829 54.6657 31.3593 55.8195 31.3593 57.2308C31.3593 58.642 30.1829 59.7958 28.7442 59.7958ZM32.1556 29.0773H25.3329C24.7809 29.0773 24.3194 28.6335 24.3194 28.0832C24.3194 27.5329 24.7718 27.0891 25.3329 27.0891H32.1556C32.7075 27.0891 33.169 27.5329 33.169 28.0832C33.169 28.6335 32.7075 29.0773 32.1556 29.0773ZM32.1556 25.3406H25.3329C24.7809 25.3406 24.3194 24.8968 24.3194 24.3465C24.3194 23.7963 24.7718 23.3525 25.3329 23.3525H32.1556C32.7075 23.3525 33.169 23.7963 33.169 24.3465C33.169 24.8968 32.7075 25.3406 32.1556 25.3406Z" fill="white" fill-opacity="0.6"/>
<path d="M47.149 18.4531H40.8059C39.3129 18.4531 38.0913 19.6513 38.0913 21.1158V60.1952C38.0913 61.6597 39.3129 62.8579 40.8059 62.8579H47.149C48.6421 62.8579 49.8636 61.6597 49.8636 60.1952V21.1158C49.8636 19.6513 48.6421 18.4531 47.149 18.4531ZM43.9729 59.7958C42.5252 59.7958 41.3579 58.642 41.3579 57.2308C41.3579 55.8195 42.5342 54.6657 43.9729 54.6657C45.4117 54.6657 46.588 55.8195 46.588 57.2308C46.588 58.642 45.4207 59.7958 43.9729 59.7958ZM47.3843 29.0773H40.5616C40.0096 29.0773 39.5481 28.6335 39.5481 28.0832C39.5481 27.5329 40.0006 27.0891 40.5616 27.0891H47.3843C47.9363 27.0891 48.3977 27.5329 48.3977 28.0832C48.3977 28.6335 47.9363 29.0773 47.3843 29.0773ZM47.3843 25.3406H40.5616C40.0096 25.3406 39.5481 24.8968 39.5481 24.3465C39.5481 23.7963 40.0006 23.3525 40.5616 23.3525H47.3843C47.9363 23.3525 48.3977 23.7963 48.3977 24.3465C48.3977 24.8968 47.9363 25.3406 47.3843 25.3406Z" fill="white" fill-opacity="0.6"/>
<path d="M74.0148 57.5326L62.5773 20.0951C62.152 18.6928 60.6318 17.8851 59.2021 18.3111L53.1214 20.0951C51.6917 20.5123 50.8683 22.0034 51.3026 23.4058L62.7401 60.8432C63.1654 62.2455 64.6856 63.0532 66.1153 62.6272L72.196 60.8432C73.6257 60.426 74.4491 58.9349 74.0148 57.5326ZM53.6553 26.0951C53.4924 25.5714 53.8 25.0211 54.3339 24.8614L60.8671 22.9442C61.4009 22.7845 61.9619 23.0862 62.1248 23.6099C62.2877 24.1336 61.98 24.6838 61.4462 24.8436L54.913 26.7607C54.3792 26.9116 53.8091 26.6187 53.6553 26.0951ZM62.5411 28.4205L56.0079 30.3376C55.474 30.4974 54.913 30.1956 54.7502 29.6719C54.5873 29.1483 54.8949 28.598 55.4288 28.4382L61.9619 26.5211C62.4958 26.3613 63.0568 26.6631 63.2197 27.1868C63.3735 27.7104 63.0659 28.2607 62.5411 28.4205ZM68.2598 58.8018C66.8754 59.2101 65.4185 58.4379 65.0023 57.0799C64.5861 55.7219 65.3733 54.293 66.7577 53.8847C68.1422 53.4764 69.599 54.2486 70.0153 55.6066C70.4315 56.9645 69.6443 58.4024 68.2598 58.8018Z" fill="white" fill-opacity="0.6"/>
</g>
<defs>
<filter id="filter0_b_208_132" x="10.8535" y="6.1958" width="75.2788" height="68.6621" filterUnits="userSpaceOnUse" color-interpolation-filters="sRGB">
<feFlood flood-opacity="0" result="BackgroundImageFix"/>
<feGaussianBlur in="BackgroundImage" stdDeviation="6"/>
<feComposite in2="SourceAlpha" operator="in" result="effect1_backgroundBlur_208_132"/>
<feBlend mode="normal" in="SourceGraphic" in2="effect1_backgroundBlur_208_132" result="shape"/>
</filter>
<clipPath id="clip0_208_132">
<rect width="51.2788" height="44.6622" fill="white" transform="translate(22.8535 18.1958)"/>
</clipPath>
</defs>
</svg>
