<svg width="91" height="83" viewBox="0 0 91 83" fill="none" xmlns="http://www.w3.org/2000/svg">
<rect width="90.9786" height="82.7078" rx="2" fill="white" fill-opacity="0.08"/>
<g filter="url(#filter0_b_208_166)">
<path d="M30.3577 34.6534C28.2209 34.7213 26.5985 36.4607 26.6661 38.6076C26.7037 39.7584 27.2219 40.7583 28.0181 41.4299C29.8019 39.7622 31.8636 38.3888 34.1357 37.3927C33.6663 35.7438 32.1566 34.593 30.3577 34.6534Z" fill="white"/>
<path d="M21.3285 38.7768C21.167 33.7209 25.1515 29.4497 30.1838 29.2875C34.4162 29.1517 38.0853 31.9626 39.2457 35.8678C40.1959 35.7093 41.1648 35.6037 42.1524 35.5735C42.5768 35.5584 43.0012 35.5622 43.4218 35.5735L45.6751 33.8529C45.9717 33.6115 46.1107 33.1474 45.8703 32.7738L42.3327 27.2123C42.0924 26.835 41.7055 26.6954 41.33 26.9368L37.5746 28.8234C36.6357 28.1631 35.7043 27.6575 34.6228 27.2311L34.1083 23.0279C34.0181 22.6468 33.7064 22.3525 33.3234 22.3638L26.7664 22.5751C26.3833 22.5865 26.0153 22.9072 26.0266 23.2883L25.7787 27.5141C24.7272 28.0084 23.7507 28.5781 22.9358 29.295L19.0677 27.6575C18.6809 27.5179 18.2302 27.6839 18.0875 27.9971L14.9855 33.7699C14.7677 34.1586 14.9367 34.6151 15.2484 34.8339L18.7598 37.1733C18.6997 37.7128 18.6433 38.2524 18.6621 38.8636C18.6809 39.4749 18.7748 40.0106 18.8687 40.5426L15.3648 43.1121C15.0682 43.3536 14.9292 43.8177 15.1696 44.1912L18.6283 49.7566C18.8687 50.1339 19.2555 50.2735 19.631 50.032L23.0597 48.3115C23.5066 47.338 24.0211 46.4023 24.6032 45.5081C22.6804 43.8818 21.4149 41.4821 21.3285 38.7768Z" fill="white"/>
<path d="M28.0201 41.4257C27.2202 40.754 26.7057 39.7542 26.6682 38.6034C26.6006 36.4565 28.2229 34.7171 30.3598 34.6492C32.1586 34.5926 33.6683 35.7434 34.1415 37.3884C35.2944 36.8828 36.4999 36.4678 37.7505 36.166C36.7403 32.9852 33.7171 30.7063 30.2396 30.8195C26.041 30.9553 22.7174 34.5133 22.8526 38.7279C22.924 40.9352 23.9342 42.8934 25.4777 44.2479C26.2438 43.2367 27.0925 42.2935 28.0201 41.4257Z" fill="white"/>
<path d="M30.1838 29.2879C25.1515 29.4502 21.167 33.7213 21.3285 38.7773C21.4148 41.4826 22.6804 43.8785 24.5995 45.5047C24.8774 45.0746 25.1703 44.6558 25.4782 44.2483C23.9348 42.8937 22.9245 40.9355 22.8532 38.7282C22.718 34.5137 26.0378 30.9556 30.2326 30.8198C33.7102 30.7066 36.7333 32.9856 37.7435 36.1663C38.2355 36.0455 38.7387 35.9512 39.2457 35.8644C38.0853 31.9631 34.4162 29.1521 30.1838 29.2879Z" fill="white"/>
<path d="M41.4284 24.2167C41.6387 24.2204 41.849 24.2242 42.0856 24.194C42.3222 24.1638 42.525 24.1072 42.7278 24.0506L43.8469 25.2656C43.9521 25.375 44.1361 25.409 44.2713 25.3033L46.2955 23.7148C46.4307 23.6054 46.472 23.4507 46.3631 23.3149L45.4993 21.9113C45.7209 21.5189 45.8824 21.1378 46.0063 20.6964L47.6137 20.3379C47.7564 20.2889 47.8615 20.1568 47.8427 20.0059L47.516 17.4477C47.4972 17.3006 47.3583 17.1647 47.2118 17.1836L45.5632 17.244C45.3341 16.8516 45.075 16.4893 44.767 16.1988L45.259 14.6254C45.3003 14.4707 45.2177 14.2972 45.09 14.2557L42.7353 13.2596C42.5814 13.1879 42.4124 13.2709 42.3373 13.4029L41.5599 14.8631C41.3496 14.8594 41.1393 14.8556 40.9027 14.8858C40.6661 14.916 40.4633 14.9726 40.2605 15.0292L39.1339 13.7538C39.0287 13.6444 38.8447 13.6105 38.7095 13.7161L36.6816 15.2782C36.5464 15.3876 36.505 15.5423 36.614 15.6781L37.4852 17.078C37.2636 17.4704 37.1022 17.8514 36.9782 18.2929L35.3709 18.6513C35.2282 18.7004 35.123 18.8324 35.1418 18.9834L35.4685 21.5415C35.4873 21.6887 35.6263 21.8245 35.7727 21.8057L37.4214 21.7453C37.6505 22.1377 37.9096 22.4999 38.2175 22.7904L37.7181 24.3638C37.6767 24.5185 37.7594 24.6921 37.8871 24.7336L40.2417 25.7297C40.3994 25.8014 40.5722 25.7184 40.6435 25.5863L41.4284 24.2167ZM38.5292 19.8738C38.3227 18.2363 39.4831 16.7271 41.1092 16.5195C42.7391 16.312 44.2413 17.4779 44.4478 19.1117C44.6544 20.7492 43.4939 22.2584 41.8678 22.4659C40.2417 22.6772 38.7395 21.5114 38.5292 19.8738Z" fill="white"/>
<path d="M45.0421 19.0399C44.7905 17.0779 42.9878 15.6781 41.035 15.9271C39.0822 16.1762 37.6889 17.991 37.9368 19.953C38.1884 21.915 39.991 23.3149 41.9438 23.0658C43.8967 22.8168 45.2937 21.002 45.0421 19.0399ZM40.0098 19.6851C39.9046 18.8513 40.4717 18.1155 41.3016 18.0061C42.1316 17.9005 42.8639 18.4702 42.9728 19.3041C43.078 20.1379 42.5109 20.8737 41.6809 20.9831C40.851 21.0925 40.1149 20.519 40.0098 19.6851Z" fill="white"/>
<path d="M33.9235 53.1759C36.9722 53.1759 39.4436 50.6929 39.4436 47.6298C39.4436 44.5668 36.9722 42.0837 33.9235 42.0837C30.8748 42.0837 28.4033 44.5668 28.4033 47.6298C28.4033 50.6929 30.8748 53.1759 33.9235 53.1759Z" fill="white"/>
<path d="M34.3433 54.6324C34.3433 54.6324 34.0615 54.6144 33.9183 54.6189C33.7752 54.6144 33.4934 54.6324 33.4934 54.6324C31.874 54.7133 30.2412 54.965 28.7203 55.5447C27.6154 55.9627 26.5731 56.565 25.7097 57.374C25.0253 58.0167 24.4661 58.7852 24.059 59.6346C23.728 60.3313 23.4999 61.0728 23.3701 61.8324C23.2762 62.3762 23.2359 62.9245 23.2449 63.4774C23.2493 63.8189 23.2717 64.1066 23.4506 64.4122C23.567 64.6099 23.719 64.7897 23.9203 64.8976C24.0948 64.992 24.2916 65.0324 24.4885 65.0504C25.1818 65.1133 25.9065 65.0594 26.5999 65.0594C27.3156 65.0594 28.0269 65.0594 28.7426 65.0594C30.0444 65.0594 31.3506 65.0594 32.6524 65.0594C32.9342 65.0594 33.2115 65.0594 33.4934 65.0594H34.3388C36.5353 65.0594 38.7272 65.0594 40.9236 65.0594C41.3531 65.0594 41.787 65.0594 42.2164 65.0594C42.7711 65.0594 43.4332 65.1762 43.9342 64.8796C45.0123 64.2369 44.5829 62.2279 44.3413 61.2436C43.9119 59.4639 42.8919 57.8908 41.4291 56.7987C39.3803 55.2616 36.835 54.8121 34.3433 54.6324Z" fill="white"/>
<path d="M64.8185 53.1759C67.8672 53.1759 70.3386 50.6929 70.3386 47.6298C70.3386 44.5668 67.8672 42.0837 64.8185 42.0837C61.7698 42.0837 59.2983 44.5668 59.2983 47.6298C59.2983 50.6929 61.7698 53.1759 64.8185 53.1759Z" fill="white"/>
<path d="M65.2427 54.6324C65.2427 54.6324 64.9609 54.6144 64.8178 54.6189C64.6746 54.6144 64.3928 54.6324 64.3928 54.6324C62.7734 54.7133 61.1406 54.965 59.6197 55.5447C58.5148 55.9627 57.4725 56.565 56.6091 57.374C55.9247 58.0167 55.3655 58.7852 54.9584 59.6346C54.6274 60.3313 54.3993 61.0728 54.2695 61.8324C54.1756 62.3762 54.1353 62.9245 54.1443 63.4774C54.1488 63.8189 54.1711 64.1066 54.3501 64.4122C54.4664 64.6099 54.6185 64.7897 54.8198 64.8976C54.9942 64.992 55.1911 65.0324 55.3879 65.0504C56.0813 65.1133 56.8059 65.0594 57.4993 65.0594C58.2151 65.0594 58.9263 65.0594 59.6421 65.0594C60.9438 65.0594 62.25 65.0594 63.5518 65.0594C63.8336 65.0594 64.111 65.0594 64.3928 65.0594H65.2383C67.4347 65.0594 69.6266 65.0594 71.8231 65.0594C72.2525 65.0594 72.6864 65.0594 73.1159 65.0594C73.6706 65.0594 74.3326 65.1762 74.8336 64.8796C75.9117 64.2369 75.4778 62.2279 75.2407 61.2436C74.8113 59.4639 73.7913 57.8908 72.3285 56.7987C70.2753 55.2616 67.7299 54.8121 65.2427 54.6324Z" fill="white"/>
<path d="M48.7615 50.3587C52.5341 50.3587 55.5923 47.2861 55.5923 43.4958C55.5923 39.7055 52.5341 36.6328 48.7615 36.6328C44.9889 36.6328 41.9307 39.7055 41.9307 43.4958C41.9307 47.2861 44.9889 50.3587 48.7615 50.3587Z" fill="white"/>
<path d="M49.2853 52.1558C49.2853 52.1558 48.9364 52.1288 48.7619 52.1378C48.5875 52.1333 48.2386 52.1558 48.2386 52.1558C46.2345 52.2547 44.217 52.5693 42.3382 53.2839C40.9738 53.8008 39.681 54.5423 38.6119 55.5491C37.7664 56.3446 37.073 57.2929 36.572 58.3446C36.1605 59.203 35.8786 60.1244 35.7221 61.0592C35.6058 61.7289 35.5521 62.412 35.5655 63.0907C35.5744 63.5087 35.6013 63.8682 35.8205 64.2457C35.9636 64.4884 36.156 64.7087 36.402 64.848C36.6167 64.9648 36.8628 65.0143 37.1043 65.0368C37.9587 65.1177 38.8579 65.0457 39.7168 65.0457C40.598 65.0457 41.4838 65.0457 42.365 65.0457C43.9754 65.0457 45.5903 65.0457 47.2007 65.0457C47.5497 65.0457 47.8941 65.0457 48.243 65.0457H49.2898C52.0051 65.0457 54.716 65.0457 57.4313 65.0457C57.9637 65.0457 58.496 65.0457 59.0283 65.0457C59.7172 65.0457 60.5359 65.1896 61.1532 64.821C62.4862 64.0255 61.9539 61.5401 61.6587 60.3221C61.1263 58.1244 59.8693 56.1783 58.0531 54.8255C55.5123 52.9333 52.363 52.376 49.2853 52.1558Z" fill="white"/>
</g>
<defs>
<filter id="filter0_b_208_166" x="-5.11279" y="-6.76685" width="100.643" height="91.8489" filterUnits="userSpaceOnUse" color-interpolation-filters="sRGB">
<feFlood flood-opacity="0" result="BackgroundImageFix"/>
<feGaussianBlur in="BackgroundImage" stdDeviation="10"/>
<feComposite in2="SourceAlpha" operator="in" result="effect1_backgroundBlur_208_166"/>
<feBlend mode="normal" in="SourceGraphic" in2="effect1_backgroundBlur_208_166" result="shape"/>
</filter>
</defs>
</svg>
