<svg width="88" height="89" viewBox="0 0 88 89" fill="none" xmlns="http://www.w3.org/2000/svg">
<g clip-path="url(#clip0_403_5387)">
<g filter="url(#filter0_d_403_5387)">
<path d="M53.1581 23.9799C55.112 25.7385 57.378 27.2343 59.6706 28.602C64.3524 31.3939 69.4448 33.8657 73.1111 37.8735C73.1111 37.8735 88.8833 55.0895 73.1891 71.9953C63.1538 82.8025 45.9401 82.1094 34.0099 75.9957C21.1419 69.3988 11.0232 57.2794 9.19295 43.2532C8.19998 35.6742 10.0466 27.5786 14.4976 20.9539C18.8253 14.5229 26.24 8.53799 34.55 8.19433C38.3893 8.02477 42.2308 9.17013 44.785 11.8895C48.2356 15.5631 49.3077 20.5107 53.1581 23.9799Z" fill="#C6FFE5"/>
</g>
</g>
<g clip-path="url(#clip1_403_5387)">
<g filter="url(#filter1_d_403_5387)">
<path d="M23.2925 27.6548C25.7547 26.0168 28.0028 23.9864 30.1146 21.8973C34.4258 17.6306 38.484 12.854 43.8949 9.95069C43.8949 9.95069 67.1443 -2.54515 82.034 18.072C91.5517 31.2544 86.3939 49.2429 76.5258 60.3558C65.8791 72.3416 49.7632 80.1 33.6278 78.6582C24.908 77.8833 16.3343 73.9894 10.067 67.7023C3.98455 61.5917 -0.81325 52.3326 0.919019 43.4854C1.7073 39.3954 3.96509 35.6191 7.65346 33.579C12.6362 30.8229 18.4364 30.8817 23.2925 27.6548Z" fill="#E8FFF4"/>
</g>
</g>
<path d="M29.0963 42.6762C28.9967 39.5594 31.453 36.9264 34.5552 36.8264C37.1643 36.7427 39.4261 38.4755 40.1415 40.8829C40.7272 40.7852 41.3245 40.7201 41.9333 40.7015C42.1949 40.6922 42.4565 40.6945 42.7158 40.7015L44.1049 39.6408C44.2877 39.492 44.3734 39.2059 44.2252 38.9756L42.0444 35.5471C41.8963 35.3146 41.6578 35.2285 41.4263 35.3774L39.1112 36.5403C38.5325 36.1333 37.9583 35.8216 37.2916 35.5588L36.9744 32.9677C36.9189 32.7327 36.7267 32.5513 36.4906 32.5583L32.4485 32.6886C32.2123 32.6955 31.9855 32.8932 31.9924 33.1282L31.8396 35.7332C31.1914 36.0379 30.5895 36.3891 30.0871 36.8311L27.7026 35.8216C27.4641 35.7356 27.1863 35.8379 27.0984 36.0309L25.1861 39.5897C25.0518 39.8292 25.156 40.1107 25.3482 40.2456L27.5127 41.6877C27.4757 42.0203 27.441 42.3529 27.4526 42.7297C27.4641 43.1065 27.522 43.4368 27.5799 43.7647L25.4199 45.3487C25.237 45.4976 25.1514 45.7837 25.2995 46.0139L27.4317 49.4447C27.5799 49.6773 27.8183 49.7634 28.0498 49.6145L30.1635 48.5539C30.439 47.9538 30.7562 47.3769 31.115 46.8257C29.9297 45.8232 29.1495 44.3439 29.0963 42.6762Z" fill="#03D68A"/>
<path d="M33.2212 44.3083C32.7281 43.8943 32.4109 43.2779 32.3878 42.5685C32.3461 41.245 33.3462 40.1728 34.6635 40.1309C35.7724 40.096 36.7031 40.8054 36.9948 41.8196C37.7055 41.5079 38.4486 41.252 39.2195 41.0659C38.5968 39.1052 36.7332 37.7003 34.5894 37.7701C32.0012 37.8538 29.9523 40.0472 30.0357 42.6453C30.0796 44.0059 30.7024 45.2131 31.6539 46.0481C32.1262 45.4248 32.6494 44.8433 33.2212 44.3083Z" fill="#02B474"/>
<path d="M34.5556 36.8262C31.4534 36.9262 28.9971 39.5591 29.0967 42.6759C29.1499 44.3436 29.9301 45.8206 31.1131 46.8231C31.2844 46.5579 31.465 46.2998 31.6548 46.0486C30.7033 45.2135 30.0806 44.0064 30.0366 42.6457C29.9532 40.0476 31.9998 37.8542 34.5857 37.7705C36.7295 37.7007 38.5931 39.1056 39.2158 41.0664C39.5191 40.9919 39.8293 40.9338 40.1419 40.8803C39.4265 38.4753 37.1647 36.7424 34.5556 36.8262Z" fill="#02B474"/>
<path d="M41.4871 33.6996C41.6168 33.7019 41.7464 33.7042 41.8923 33.6856C42.0381 33.667 42.1631 33.6321 42.2881 33.5972L42.978 34.3462C43.0428 34.4136 43.1563 34.4346 43.2396 34.3694L44.4874 33.3902C44.5708 33.3228 44.5963 33.2274 44.5291 33.1437L43.9967 32.2784C44.1332 32.0365 44.2328 31.8016 44.3092 31.5295L45.3 31.3085C45.388 31.2782 45.4528 31.1968 45.4413 31.1038L45.2398 29.5268C45.2283 29.4361 45.1426 29.3524 45.0523 29.364L44.036 29.4012C43.8948 29.1593 43.735 28.936 43.5452 28.7569L43.8485 27.787C43.874 27.6916 43.823 27.5846 43.7443 27.559L42.2928 26.945C42.1978 26.9008 42.0937 26.952 42.0474 27.0334L41.5681 27.9335C41.4385 27.9312 41.3089 27.9289 41.163 27.9475C41.0172 27.9661 40.8921 28.001 40.7671 28.0359L40.0726 27.2497C40.0078 27.1822 39.8943 27.1613 39.811 27.2264L38.5609 28.1894C38.4775 28.2568 38.4521 28.3522 38.5192 28.4359L39.0563 29.2989C38.9197 29.5408 38.8202 29.7757 38.7438 30.0478L37.7529 30.2688C37.6649 30.299 37.6001 30.3804 37.6117 30.4735L37.8131 32.0505C37.8247 32.1412 37.9103 32.2249 38.0006 32.2133L39.0169 32.1761C39.1582 32.418 39.3179 32.6413 39.5077 32.8204L39.1998 33.7903C39.1744 33.8856 39.2253 33.9926 39.304 34.0182L40.7556 34.6323C40.8528 34.6765 40.9593 34.6253 41.0033 34.5439L41.4871 33.6996ZM39.6999 31.0224C39.5726 30.0129 40.2879 29.0825 41.2903 28.9546C42.2951 28.8267 43.2211 29.5454 43.3484 30.5526C43.4758 31.562 42.7604 32.4924 41.758 32.6203C40.7556 32.7506 39.8295 32.0319 39.6999 31.0224Z" fill="#03D68A"/>
<path d="M43.7146 30.5084C43.5595 29.2989 42.4483 28.436 41.2444 28.5895C40.0406 28.743 39.1817 29.8618 39.3345 31.0713C39.4896 32.2808 40.6008 33.1437 41.8047 32.9902C43.0085 32.8367 43.8697 31.7179 43.7146 30.5084ZM40.6124 30.9061C40.5476 30.3921 40.8972 29.9385 41.4088 29.8711C41.9204 29.8059 42.3719 30.1572 42.439 30.6712C42.5038 31.1852 42.1543 31.6388 41.6426 31.7062C41.131 31.7737 40.6772 31.4202 40.6124 30.9061Z" fill="#02B474"/>
<path d="M36.859 51.5517C38.7384 51.5517 40.2619 50.021 40.2619 48.1328C40.2619 46.2446 38.7384 44.7139 36.859 44.7139C34.9796 44.7139 33.4561 46.2446 33.4561 48.1328C33.4561 50.021 34.9796 51.5517 36.859 51.5517Z" fill="#02B474"/>
<path d="M37.1178 52.4492C37.1178 52.4492 36.9441 52.4381 36.8559 52.4409C36.7676 52.4381 36.5939 52.4492 36.5939 52.4492C35.5956 52.4991 34.5891 52.6542 33.6515 53.0116C32.9704 53.2693 32.3278 53.6405 31.7956 54.1393C31.3737 54.5355 31.029 55.0092 30.778 55.5329C30.574 55.9623 30.4333 56.4195 30.3534 56.8877C30.2954 57.2229 30.2706 57.561 30.2761 57.9017C30.2789 58.1123 30.2927 58.2896 30.403 58.478C30.4747 58.5999 30.5685 58.7108 30.6925 58.7772C30.8001 58.8354 30.9214 58.8604 31.0428 58.8714C31.4702 58.9102 31.9169 58.877 32.3444 58.877C32.7856 58.877 33.2241 58.877 33.6653 58.877C34.4678 58.877 35.273 58.877 36.0755 58.877C36.2492 58.877 36.4202 58.877 36.5939 58.877H37.1151C38.4691 58.877 39.8203 58.877 41.1743 58.877C41.4391 58.877 41.7066 58.877 41.9713 58.877C42.3132 58.877 42.7214 58.949 43.0302 58.7662C43.6948 58.37 43.4301 57.1315 43.2812 56.5247C43.0164 55.4276 42.3877 54.4579 41.4859 53.7846C40.2229 52.8371 38.6538 52.56 37.1178 52.4492Z" fill="#02B474"/>
<path d="M55.9059 51.5517C57.7852 51.5517 59.3088 50.021 59.3088 48.1328C59.3088 46.2446 57.7852 44.7139 55.9059 44.7139C54.0265 44.7139 52.5029 46.2446 52.5029 48.1328C52.5029 50.021 54.0265 51.5517 55.9059 51.5517Z" fill="#02B474"/>
<path d="M56.1676 52.4492C56.1676 52.4492 55.9939 52.4381 55.9057 52.4409C55.8174 52.4381 55.6437 52.4492 55.6437 52.4492C54.6454 52.4991 53.6389 52.6542 52.7013 53.0116C52.0202 53.2693 51.3776 53.6405 50.8454 54.1393C50.4235 54.5355 50.0788 55.0092 49.8278 55.5329C49.6238 55.9623 49.4831 56.4195 49.4032 56.8877C49.3452 57.2229 49.3204 57.561 49.3259 57.9017C49.3287 58.1123 49.3425 58.2896 49.4528 58.478C49.5245 58.5999 49.6183 58.7108 49.7423 58.7772C49.8499 58.8354 49.9712 58.8604 50.0926 58.8714C50.52 58.9102 50.9667 58.877 51.3942 58.877C51.8354 58.877 52.2739 58.877 52.7151 58.877C53.5176 58.877 54.3228 58.877 55.1253 58.877C55.299 58.877 55.47 58.877 55.6437 58.877H56.1649C57.5189 58.877 58.8701 58.877 60.2241 58.877C60.4889 58.877 60.7564 58.877 61.0211 58.877C61.363 58.877 61.7712 58.949 62.08 58.7662C62.7446 58.37 62.4771 57.1315 62.331 56.5247C62.0662 55.4276 61.4375 54.4579 60.5358 53.7846C59.27 52.8371 57.7009 52.56 56.1676 52.4492Z" fill="#02B474"/>
<path d="M46.0078 49.8149C48.3334 49.8149 50.2187 47.9208 50.2187 45.5842C50.2187 43.2477 48.3334 41.3535 46.0078 41.3535C43.6822 41.3535 41.7969 43.2477 41.7969 45.5842C41.7969 47.9208 43.6822 49.8149 46.0078 49.8149Z" fill="#03D68A"/>
<path d="M46.331 50.9229C46.331 50.9229 46.1159 50.9062 46.0084 50.9118C45.9008 50.909 45.6857 50.9229 45.6857 50.9229C44.4503 50.9838 43.2066 51.1778 42.0484 51.6183C41.2073 51.9369 40.4103 52.394 39.7513 53.0147C39.2301 53.5051 38.8026 54.0897 38.4938 54.738C38.2401 55.2672 38.0663 55.8351 37.9698 56.4114C37.8981 56.8242 37.865 57.2454 37.8733 57.6637C37.8788 57.9214 37.8954 58.1431 38.0305 58.3758C38.1187 58.5254 38.2373 58.6612 38.389 58.747C38.5214 58.8191 38.673 58.8496 38.8219 58.8634C39.3487 58.9133 39.9029 58.8689 40.4324 58.8689C40.9757 58.8689 41.5217 58.8689 42.0649 58.8689C43.0577 58.8689 44.0532 58.8689 45.0459 58.8689C45.261 58.8689 45.4734 58.8689 45.6885 58.8689H46.3338C48.0076 58.8689 49.6788 58.8689 51.3527 58.8689C51.6808 58.8689 52.009 58.8689 52.3371 58.8689C52.7618 58.8689 53.2665 58.9576 53.647 58.7304C54.4688 58.24 54.1406 56.7079 53.9586 55.957C53.6305 54.6022 52.8556 53.4025 51.736 52.5686C50.1696 51.4022 48.2283 51.0586 46.331 50.9229Z" fill="#03D68A"/>
<defs>
<filter id="filter0_d_403_5387" x="-11.0688" y="-2.82178" width="111.213" height="112.224" filterUnits="userSpaceOnUse" color-interpolation-filters="sRGB">
<feFlood flood-opacity="0" result="BackgroundImageFix"/>
<feColorMatrix in="SourceAlpha" type="matrix" values="0 0 0 0 0 0 0 0 0 0 0 0 0 0 0 0 0 0 127 0" result="hardAlpha"/>
<feOffset dy="9"/>
<feGaussianBlur stdDeviation="10"/>
<feColorMatrix type="matrix" values="0 0 0 0 0 0 0 0 0 0 0 0 0 0 0 0 0 0 0.03 0"/>
<feBlend mode="normal" in2="BackgroundImageFix" result="effect1_dropShadow_403_5387"/>
<feBlend mode="normal" in="SourceGraphic" in2="effect1_dropShadow_403_5387" result="shape"/>
</filter>
<filter id="filter1_d_403_5387" x="-19.439" y="-4.80127" width="126.515" height="112.631" filterUnits="userSpaceOnUse" color-interpolation-filters="sRGB">
<feFlood flood-opacity="0" result="BackgroundImageFix"/>
<feColorMatrix in="SourceAlpha" type="matrix" values="0 0 0 0 0 0 0 0 0 0 0 0 0 0 0 0 0 0 127 0" result="hardAlpha"/>
<feOffset dy="9"/>
<feGaussianBlur stdDeviation="10"/>
<feColorMatrix type="matrix" values="0 0 0 0 0 0 0 0 0 0 0 0 0 0 0 0 0 0 0.03 0"/>
<feBlend mode="normal" in2="BackgroundImageFix" result="effect1_dropShadow_403_5387"/>
<feBlend mode="normal" in="SourceGraphic" in2="effect1_dropShadow_403_5387" result="shape"/>
</filter>
<clipPath id="clip0_403_5387">
<rect width="75.5067" height="67.1421" fill="white" transform="translate(68.0913 0.226074) rotate(77.1588)"/>
</clipPath>
<clipPath id="clip1_403_5387">
<rect width="86.5161" height="72.6308" fill="white" transform="translate(0.559082 6.19385)"/>
</clipPath>
</defs>
</svg>
