<svg width="102" height="104" viewBox="0 0 102 104" fill="none" xmlns="http://www.w3.org/2000/svg">
<g clip-path="url(#clip0_822_109)">
<g filter="url(#filter0_d_822_109)">
<path d="M61.782 27.9015C64.0771 29.9671 66.7387 31.724 69.4316 33.3305C74.9308 36.6098 80.9123 39.5132 85.2186 44.2207C85.2186 44.2207 103.745 64.4424 85.3102 84.2998C73.5229 96.9939 53.3039 96.1797 39.2908 88.9986C24.1761 81.2499 12.2908 67.0146 10.1411 50.5397C8.97477 41.6375 11.1437 32.1285 16.3719 24.3472C21.4552 16.7933 30.1644 9.76355 39.9252 9.35989C44.4348 9.16073 48.947 10.5061 51.9471 13.7002C56.0002 18.0152 57.2594 23.8265 61.782 27.9015Z" fill="#D4ECFB"/>
</g>
</g>
<g clip-path="url(#clip1_822_109)">
<g filter="url(#filter1_d_822_109)">
<path d="M26.8784 32.6257C29.7812 30.7087 32.4316 28.3326 34.9214 25.8877C40.0042 20.8944 44.7886 15.3043 51.1679 11.9066C51.1679 11.9066 78.5783 -2.71735 96.1329 21.4109C107.354 36.8384 101.273 57.8904 89.6388 70.8958C77.0867 84.9228 58.0865 94.0024 39.0633 92.3151C28.783 91.4083 18.6748 86.8512 11.2858 79.4933C4.11484 72.3421 -1.54163 61.5062 0.500666 51.1523C1.43003 46.3657 4.09189 41.9464 8.44037 39.5588C14.3148 36.3333 21.1531 36.4022 26.8784 32.6257Z" fill="#E9F6FF"/>
</g>
</g>
<g clip-path="url(#clip2_822_109)">
<path d="M51.2817 47.8137C56.2198 47.8137 60.223 43.826 60.223 38.9068C60.223 33.9877 56.2198 30 51.2817 30C46.3435 30 42.3403 33.9877 42.3403 38.9068C42.3403 43.826 46.3435 47.8137 51.2817 47.8137Z" fill="#1F86E5"/>
<path d="M56.3571 64.5761C56.3571 60.6734 59.5311 57.5117 63.4489 57.5117C64.9563 57.5117 66.3524 57.9832 67.5059 58.7835C66.6388 56.743 65.2546 54.9521 63.4449 53.6169C60.1237 51.1643 55.9991 50.4353 51.9659 50.15C51.9659 50.15 51.5125 50.1183 51.2818 50.1263C51.0511 50.1183 50.5977 50.15 50.5977 50.15C47.9766 50.2808 45.3355 50.6849 42.8695 51.6121C41.0836 52.2856 39.3932 53.2484 37.9931 54.552C36.8834 55.5821 35.9766 56.8183 35.3203 58.1773C34.7833 59.2907 34.4134 60.4833 34.2066 61.7036C34.0554 62.5753 33.9878 63.4588 34.0037 64.3424C34.0157 64.8891 34.0475 65.3487 34.3378 65.844C34.5248 66.161 34.7754 66.4462 35.0975 66.6245C35.3799 66.7791 35.6981 66.8385 36.0163 66.8702C37.138 66.9732 38.3113 66.8821 39.4369 66.8821C40.5904 66.8821 41.7479 66.8821 42.9013 66.8821C45.0094 66.8821 47.1214 66.8821 49.2295 66.8821C49.6829 66.8821 50.1363 66.8821 50.5897 66.8821H51.958C53.553 66.8821 55.1479 66.8821 56.7429 66.8821C56.5003 66.157 56.3571 65.3844 56.3571 64.5761Z" fill="#1F86E5"/>
<path d="M63.8546 58.7617C60.4619 58.7617 57.7095 61.5035 57.7095 64.8832C57.7095 68.2629 60.4619 71.0047 63.8546 71.0047C67.2474 71.0047 69.9998 68.2629 69.9998 64.8832C69.9998 61.4995 67.2514 58.7617 63.8546 58.7617ZM66.7383 64.0194C65.7956 64.9585 64.849 65.9015 63.9064 66.8405C63.6796 67.0663 63.2342 67.1654 62.9597 66.9633C62.4705 66.5988 61.9813 66.2343 61.496 65.8737C60.7005 65.2754 61.4801 63.9244 62.2836 64.5266C62.6177 64.7723 62.9438 65.0179 63.2739 65.2636C64.0615 64.4791 64.849 63.6946 65.6326 62.914C66.3485 62.2048 67.4503 63.3102 66.7383 64.0194Z" fill="#03D68A"/>
</g>
<defs>
<filter id="filter0_d_822_109" x="-10.1665" y="-1.66016" width="123.646" height="124.836" filterUnits="userSpaceOnUse" color-interpolation-filters="sRGB">
<feFlood flood-opacity="0" result="BackgroundImageFix"/>
<feColorMatrix in="SourceAlpha" type="matrix" values="0 0 0 0 0 0 0 0 0 0 0 0 0 0 0 0 0 0 127 0" result="hardAlpha"/>
<feOffset dy="9"/>
<feGaussianBlur stdDeviation="10"/>
<feColorMatrix type="matrix" values="0 0 0 0 0 0 0 0 0 0 0 0 0 0 0 0 0 0 0.03 0"/>
<feBlend mode="normal" in2="BackgroundImageFix" result="effect1_dropShadow_822_109"/>
<feBlend mode="normal" in="SourceGraphic" in2="effect1_dropShadow_822_109" result="shape"/>
</filter>
<filter id="filter1_d_822_109" x="-19.9214" y="-3.48438" width="141.999" height="125" filterUnits="userSpaceOnUse" color-interpolation-filters="sRGB">
<feFlood flood-opacity="0" result="BackgroundImageFix"/>
<feColorMatrix in="SourceAlpha" type="matrix" values="0 0 0 0 0 0 0 0 0 0 0 0 0 0 0 0 0 0 127 0" result="hardAlpha"/>
<feOffset dy="9"/>
<feGaussianBlur stdDeviation="10"/>
<feColorMatrix type="matrix" values="0 0 0 0 0 0 0 0 0 0 0 0 0 0 0 0 0 0 0.03 0"/>
<feBlend mode="normal" in2="BackgroundImageFix" result="effect1_dropShadow_822_109"/>
<feBlend mode="normal" in="SourceGraphic" in2="effect1_dropShadow_822_109" result="shape"/>
</filter>
<clipPath id="clip0_822_109">
<rect width="88.6893" height="78.8643" fill="white" transform="translate(79.3223) rotate(77.1588)"/>
</clipPath>
<clipPath id="clip1_822_109">
<rect width="102" height="85" fill="white" transform="translate(0 7)"/>
</clipPath>
<clipPath id="clip2_822_109">
<rect width="36" height="41" fill="white" transform="translate(34 30)"/>
</clipPath>
</defs>
</svg>
