<svg width="95" height="98" viewBox="0 0 95 98" fill="none" xmlns="http://www.w3.org/2000/svg">
<g clip-path="url(#clip0_822_108)">
<g filter="url(#filter0_d_822_108)">
<path d="M57.7571 26.0839C59.9026 28.0149 62.3908 29.6573 64.9082 31.1592C70.0491 34.2249 75.6409 36.9391 79.6667 41.3398C79.6667 41.3398 96.9856 60.2441 79.7523 78.8077C68.7329 90.6747 49.8313 89.9136 36.7312 83.2003C22.6013 75.9565 11.4904 62.6487 9.48067 47.2471C8.39033 38.9249 10.418 30.0355 15.3055 22.7612C20.0576 15.6994 28.1994 9.12769 37.3243 8.75033C41.5401 8.56414 45.7583 9.82181 48.5629 12.8078C52.3519 16.8417 53.5291 22.2744 57.7571 26.0839Z" fill="#FEE1D1"/>
</g>
</g>
<g clip-path="url(#clip1_822_108)">
<g filter="url(#filter1_d_822_108)">
<path d="M24.963 30.3415C27.6666 28.5598 30.1351 26.3515 32.454 24.0791C37.188 19.4383 41.6441 14.2428 47.5856 11.0849C47.5856 11.0849 73.1149 -2.50674 89.4647 19.9184C99.9158 34.2568 94.2521 53.8228 83.4164 65.9101C71.7257 78.947 54.0294 87.3858 36.3117 85.8175C26.7369 84.9747 17.3224 80.7393 10.4405 73.9008C3.76167 67.2544 -1.50661 57.1833 0.39553 47.5604C1.26111 43.1116 3.7403 39.0043 7.79036 36.7852C13.2617 33.7874 19.6306 33.8514 24.963 30.3415Z" fill="#FFF0E8"/>
</g>
</g>
<g clip-path="url(#clip2_822_108)">
<path d="M49.0284 34.0062C48.021 34.4455 46.8544 33.9811 46.4177 32.9674L44.7334 29.0602L44.7053 29.0508L27.1947 36.6894C26.1872 37.1288 25.7255 38.3057 26.1622 39.3162L38.8695 68.7943C39.3062 69.808 40.4758 70.2725 41.4802 69.8331L63.5292 60.2111C64.5366 59.7717 64.9983 58.5948 64.5616 57.5843L53.5636 32.0667L53.5106 32.0479L49.0284 34.0062Z" fill="#E45200"/>
<path d="M46.4177 32.9697C46.8544 33.9834 48.0241 34.4478 49.0284 34.0085L53.5106 32.0502L44.7334 29.0625L46.4177 32.9697Z" fill="#556E82"/>
<path d="M44.7248 29.0391L44.7021 29.0489L44.7345 29.062L44.7248 29.0391Z" fill="#556E82"/>
<path opacity="0.39" d="M44.7248 29.0391L44.7021 29.0489L44.7345 29.062L44.7248 29.0391Z" fill="#556E82"/>
<path d="M53.5137 32.0469L53.5636 32.0658L53.548 32.0312L53.5137 32.0469Z" fill="#556E82"/>
<path opacity="0.39" d="M53.5137 32.0469L53.5636 32.0658L53.548 32.0312L53.5137 32.0469Z" fill="#556E82"/>
<path d="M64.5552 37.3461C63.4698 37.1829 62.7212 36.1692 62.8834 35.0771L63.5041 30.8623L63.4854 30.8372L44.6085 28.0222C43.5231 27.859 42.5156 28.6153 42.3534 29.7043L37.6685 61.4891C37.5063 62.5812 38.258 63.5949 39.3403 63.7581L63.1142 67.3075C64.1997 67.4707 65.2071 66.7144 65.3693 65.6254L69.4242 38.1118L69.3899 38.0679L64.5552 37.3461Z" fill="#FD6612"/>
<path d="M62.8833 35.078C62.7211 36.1702 63.4729 37.1838 64.5552 37.347L69.3898 38.0688L63.504 30.8633L62.8833 35.078Z" fill="#FFBB95"/>
<path d="M63.5076 30.843L63.4854 30.8398L63.5044 30.8623L63.5076 30.843Z" fill="#8499B2"/>
<path opacity="0.39" d="M63.5076 30.843L63.4854 30.8398L63.5044 30.8623L63.5076 30.843Z" fill="#8499B2"/>
<path d="M69.3896 38.0664L69.424 38.1103L69.4302 38.0727L69.3896 38.0664Z" fill="#8499B2"/>
<path opacity="0.39" d="M69.3896 38.0664L69.424 38.1103L69.4302 38.0727L69.3896 38.0664Z" fill="#8499B2"/>
<path d="M57.6623 37.7368C56.5644 37.7368 55.6754 36.8424 55.6754 35.7377V31.479L55.6536 31.457H36.5709C35.4729 31.457 34.584 32.3514 34.584 33.4561V65.5893C34.584 66.694 35.4729 67.5884 36.5709 67.5884H60.6036C61.7015 67.5884 62.5905 66.694 62.5905 65.5893V37.7744L62.5499 37.7368H57.6623Z" fill="#FF7C33"/>
<path d="M55.6753 35.7392C55.6753 36.8438 56.5642 37.7383 57.6622 37.7383H62.5498L55.6753 31.4805V35.7392Z" fill="#FFBB95"/>
<path d="M55.676 31.457H55.6538L55.676 31.4794V31.457Z" fill="#1F86E5"/>
<path opacity="0.39" d="M55.676 31.457H55.6538L55.676 31.4794V31.457Z" fill="#1F86E5"/>
<path d="M62.5469 37.7383L62.5889 37.7776V37.7383H62.5469Z" fill="#1F86E5"/>
<path opacity="0.39" d="M62.5469 37.7383L62.5889 37.7776V37.7383H62.5469Z" fill="#1F86E5"/>
<path d="M56.3457 40.8778H40.825C40.2917 40.8778 39.855 40.4384 39.855 39.9018C39.855 39.3651 40.2917 38.9258 40.825 38.9258H56.3457C56.8791 38.9258 57.3158 39.3651 57.3158 39.9018C57.3158 40.4384 56.8791 40.8778 56.3457 40.8778Z" fill="white"/>
<path d="M56.4206 46.2272H40.7502C40.2573 46.2272 39.855 45.8223 39.855 45.3265C39.855 44.8306 40.2573 44.4258 40.7502 44.4258H56.4175C56.9103 44.4258 57.3126 44.8306 57.3126 45.3265C57.3158 45.8223 56.9134 46.2272 56.4206 46.2272Z" fill="white"/>
<path d="M49.7862 57.734H40.6129C40.195 57.734 39.855 57.3888 39.855 56.9714V56.5478C39.855 56.1272 40.1981 55.7852 40.6129 55.7852H49.7862C50.2042 55.7852 50.5442 56.1304 50.5442 56.5478V56.9714C50.5442 57.392 50.2042 57.734 49.7862 57.734Z" fill="white"/>
<path d="M49.8424 63.0897H40.5568C40.17 63.0897 39.855 62.7727 39.855 62.3836V61.9913C39.855 61.6021 40.17 61.2852 40.5568 61.2852H49.8455C50.2323 61.2852 50.5473 61.6021 50.5473 61.9913V62.3836C50.5442 62.7727 50.2291 63.0897 49.8424 63.0897Z" fill="white"/>
<path d="M73.9999 41.052C73.9999 40.7444 73.8596 40.4432 73.6038 40.2737C72.9269 39.8312 72.2532 39.9379 71.7666 40.1387C71.3331 40.3176 71.0586 40.7476 71.0586 41.2183V43.2111H73.9999V41.052Z" fill="#FF7C33"/>
<path d="M73.9999 43.8047H71.0586V62.7381L73.9999 62.7099V43.8047Z" fill="#FF7C33"/>
<path d="M71.0586 63.2939V63.3347L72.5277 66.8715L73.9999 63.297V63.2845V63.2656L71.0586 63.2939Z" fill="#FF7C33"/>
</g>
<defs>
<filter id="filter0_d_822_108" x="-10.8066" y="-2.26953" width="118.196" height="119.309" filterUnits="userSpaceOnUse" color-interpolation-filters="sRGB">
<feFlood flood-opacity="0" result="BackgroundImageFix"/>
<feColorMatrix in="SourceAlpha" type="matrix" values="0 0 0 0 0 0 0 0 0 0 0 0 0 0 0 0 0 0 127 0" result="hardAlpha"/>
<feOffset dy="9"/>
<feGaussianBlur stdDeviation="10"/>
<feColorMatrix type="matrix" values="0 0 0 0 0 0 0 0 0 0 0 0 0 0 0 0 0 0 0.03 0"/>
<feBlend mode="normal" in2="BackgroundImageFix" result="effect1_dropShadow_822_108"/>
<feBlend mode="normal" in="SourceGraphic" in2="effect1_dropShadow_822_108" result="shape"/>
</filter>
<filter id="filter1_d_822_108" x="-19.9976" y="-3.99609" width="134.999" height="119" filterUnits="userSpaceOnUse" color-interpolation-filters="sRGB">
<feFlood flood-opacity="0" result="BackgroundImageFix"/>
<feColorMatrix in="SourceAlpha" type="matrix" values="0 0 0 0 0 0 0 0 0 0 0 0 0 0 0 0 0 0 127 0" result="hardAlpha"/>
<feOffset dy="9"/>
<feGaussianBlur stdDeviation="10"/>
<feColorMatrix type="matrix" values="0 0 0 0 0 0 0 0 0 0 0 0 0 0 0 0 0 0 0.03 0"/>
<feBlend mode="normal" in2="BackgroundImageFix" result="effect1_dropShadow_822_108"/>
<feBlend mode="normal" in="SourceGraphic" in2="effect1_dropShadow_822_108" result="shape"/>
</filter>
<clipPath id="clip0_822_108">
<rect width="82.911" height="73.7261" fill="white" transform="translate(74.1543) rotate(77.1588)"/>
</clipPath>
<clipPath id="clip1_822_108">
<rect width="95" height="79" fill="white" transform="translate(0 7)"/>
</clipPath>
<clipPath id="clip2_822_108">
<rect width="48" height="42" fill="white" transform="translate(26 28)"/>
</clipPath>
</defs>
</svg>
