<svg width="56" height="32" viewBox="0 0 56 32" fill="none" xmlns="http://www.w3.org/2000/svg">
<g clip-path="url(#clip0_387_671)">
<path d="M27.4056 0.798974C27.4056 0.798974 27.1902 2.0762 27.1693 2.07898H27.2429C27.022 2.10557 26.8022 2.14391 26.5845 2.19393L26.6443 2.1723C26.6236 2.17688 26.0892 1.03306 26.0892 1.03306L24.955 1.44585C24.955 1.44585 25.078 2.73973 25.0587 2.74947L25.1317 2.72307C24.9247 2.82672 24.7222 2.94148 24.5247 3.06714L24.5819 3.02087C24.5635 3.03236 23.7589 2.12662 23.7589 2.12662L22.7829 2.91464C22.7829 2.91464 23.2332 4.10649 23.2175 4.12256L23.2826 4.06996C23.1098 4.24286 22.9442 4.42493 22.7863 4.61596L22.8323 4.54728C22.8176 4.56476 21.8168 3.97985 21.8168 3.97985L21.0883 5.07102C21.0883 5.07102 21.8249 6.05182 21.8139 6.07247L21.8635 5.9982C21.7423 6.22473 21.6304 6.45803 21.5283 6.69684L21.5557 6.61166C21.5461 6.63328 20.4405 6.42282 20.4405 6.42282L20.0261 7.71729C20.0261 7.71729 20.9814 8.39709 20.9765 8.42071L21.005 8.33158C20.9474 8.59109 20.9006 8.85376 20.8645 9.11838L20.8688 9.02487C20.8652 9.04888 19.7561 9.23236 19.7561 9.23236L19.6938 10.6114C19.6938 10.6114 20.7804 10.9283 20.7818 10.9527L20.7828 10.9295C20.7977 11.214 20.825 11.4971 20.8649 11.7782L19.934 12.2623L20.1866 13.4843C21.195 17.3112 24.3783 19.9463 28 19.9522C31.6217 19.9463 34.8049 17.3112 35.8135 13.4843L36.0661 12.2623L35.1299 11.7755C35.1723 11.4717 35.2003 11.1652 35.214 10.8578L35.2181 10.9527C35.2195 10.9283 36.3064 10.6114 36.3064 10.6114L36.2442 9.23231C36.2442 9.23231 35.1347 9.04888 35.1313 9.02482L35.1323 9.04386C35.0978 8.81397 35.0551 8.58563 35.0041 8.35988L35.0236 8.42062C35.0185 8.39699 35.9738 7.7172 35.9738 7.7172L35.5595 6.42272C35.5595 6.42272 34.4538 6.63318 34.4443 6.61156C34.3547 6.41201 34.2583 6.21684 34.1558 6.02645L34.1862 6.07233C34.1753 6.05168 34.9119 5.07087 34.9119 5.07087L34.1832 3.9797C34.1832 3.9797 33.1824 4.56462 33.168 4.54713L33.1735 4.55527C33.0364 4.39463 32.8939 4.24057 32.7466 4.09324L32.7824 4.12241C32.7667 4.10634 33.2172 2.91449 33.2172 2.91449L32.241 2.12647C32.241 2.12647 31.4364 3.03222 31.418 3.02072L31.4313 3.03124C31.2594 2.92482 31.0844 2.82653 30.906 2.73642L30.9416 2.74933C30.9224 2.73959 31.0451 1.4457 31.0451 1.4457L29.9107 1.03291C29.9107 1.03291 29.3761 2.17669 29.3556 2.17216L29.3778 2.18029C29.1868 2.13743 28.994 2.10343 28.8002 2.07883H28.8306C28.8101 2.07606 28.5945 0.798828 28.5945 0.798828H27.4056V0.798974Z" fill="#1CB14D"/>
<path d="M26.2545 6.88997C26.2425 8.99312 27.4614 10.2858 27.9795 10.6335C28.4975 10.2858 29.7163 8.99312 29.7044 6.88997C29.6925 4.78663 28.4975 3.49391 27.9795 3.14648C27.4614 3.49391 26.2664 4.78658 26.2545 6.88997Z" fill="#FDC14F"/>
<path d="M20.7275 13.7178C20.9427 14.3617 21.2194 14.9698 21.5492 15.5325C24.5721 13.4009 28.9489 16.8802 34.1771 15.9704C34.551 15.4084 34.8689 14.7941 35.1218 14.1383C27.6207 17.1447 23.7934 12.3292 20.7275 13.7178Z" fill="#FDC14F"/>
<path d="M22.1411 16.4193C22.473 16.8581 22.8409 17.2583 23.2393 17.6157C27.8696 14.7327 29.7785 17.1698 32.2678 18.0227C32.7351 17.6673 33.1671 17.2555 33.5571 16.7953C29.5933 17.4616 26.6058 14.03 22.1411 16.4193Z" fill="#FDC14F"/>
<path d="M27.4188 16.9541C26.2507 16.9541 25.0828 17.4036 24.123 18.3018C25.2648 19.0626 26.5884 19.4978 28.0001 19.4978C29.1147 19.4978 30.1742 19.2259 31.1329 18.7371C30.1062 17.5482 28.7626 16.9541 27.4188 16.9541Z" fill="#FDC14F"/>
<path d="M28.5661 14.0498H27.4341V19.658H28.5661V14.0498Z" fill="#1CB14D"/>
<path d="M23.4789 8.06765C23.4379 8.06843 23.4005 8.07062 23.3666 8.07398C23.1991 8.67278 23.0762 10.4382 24.1951 12.0917C24.2987 12.245 24.406 12.3859 24.5154 12.5158C25.2446 13.4551 26.3679 14.0898 27.6468 14.1893V19.4882C27.764 19.4941 27.8818 19.4981 28.0002 19.4981C28.1186 19.4981 28.2364 19.4941 28.3536 19.4882V14.1893C29.6302 14.0898 30.7517 13.4571 31.4811 12.5205C31.4817 12.52 31.4824 12.5191 31.4828 12.5184C31.5932 12.3879 31.7008 12.2459 31.8051 12.0917C32.9241 10.4382 32.8011 8.67278 32.6336 8.07398C32.6001 8.07062 32.5625 8.06843 32.5215 8.06765C31.907 8.05674 30.5145 8.37956 29.4501 9.91567C28.5444 11.2229 28.4504 12.6198 28.5341 13.4356C28.4001 13.5998 28.2108 13.7025 28.0002 13.7022C27.7899 13.7024 27.6003 13.5998 27.466 13.4356C27.5499 12.6198 27.4558 11.2229 26.55 9.91567C25.4858 8.37956 24.0936 8.05674 23.4789 8.06765Z" fill="#FDC14F"/>
<path d="M0 24.1455H2.00189V29.8183H5.12625V31.6719H0V24.1455Z" fill="#1CB14D"/>
<path d="M10.0317 30.4293H7.75137L7.43758 31.6718H5.3916L7.82652 24.1455H10.0096L12.4445 31.6718H10.3498L10.0317 30.4293ZM9.61176 28.8016L8.89583 26.0959L8.18439 28.8016H9.61176Z" fill="#1CB14D"/>
<path d="M13.0942 24.1455H14.9635L17.4029 28.309V24.1455H19.29V31.6718H17.4029L14.9768 27.539V31.6718H13.0942V24.1455Z" fill="#1CB14D"/>
<path d="M20.6554 24.1455H23.6295C24.2157 24.1455 24.6886 24.2376 25.0482 24.4226C25.4105 24.6073 25.7096 24.8726 25.9452 25.2184C26.1809 25.5639 26.3517 25.9661 26.4577 26.4247C26.5638 26.8834 26.6168 27.3694 26.6168 27.8828C26.6168 28.6873 26.5373 29.3115 26.3782 29.7566C26.2221 30.1982 26.0041 30.5694 25.7242 30.8708C25.4442 31.1686 25.1438 31.3668 24.8226 31.4661C24.3836 31.6034 23.9859 31.6718 23.6294 31.6718H20.6553V24.1455H20.6554ZM22.6573 25.8498V29.9619H23.1477C23.5661 29.9619 23.8637 29.9091 24.0405 29.8031C24.2172 29.6935 24.3557 29.5053 24.4558 29.2385C24.5561 28.9676 24.6062 28.5316 24.6062 27.9289C24.6062 27.1315 24.4943 26.5856 24.2702 26.2913C24.0463 25.9967 23.6752 25.8498 23.1566 25.8498H22.6573Z" fill="#1CB14D"/>
<path d="M27.6685 24.1455H31.4157C32.0406 24.1455 32.519 24.325 32.852 24.6844C33.188 25.0437 33.3558 25.4884 33.3558 26.0189C33.3558 26.4641 33.2364 26.8457 32.9979 27.1641C32.839 27.3762 32.6058 27.5437 32.2995 27.6672C32.7651 27.7971 33.1068 28.0214 33.325 28.3394C33.5457 28.6547 33.6565 29.0518 33.6565 29.5307C33.6565 29.921 33.5783 30.2716 33.4221 30.5834C33.2662 30.8947 33.0523 31.1413 32.7816 31.3224C32.6134 31.4355 32.3601 31.5177 32.0214 31.5689C31.5706 31.6376 31.2715 31.6718 31.1242 31.6718H27.6685V24.1455ZM29.6879 27.0974H30.5585C30.8709 27.0974 31.0875 27.0354 31.2079 26.9123C31.3316 26.786 31.3938 26.6042 31.3938 26.3684C31.3938 26.1491 31.3316 25.9781 31.2079 25.855C31.0875 25.7315 30.8749 25.6704 30.5718 25.6704H29.6879V27.0974H29.6879ZM29.6879 30.0544H30.7089C31.0534 30.0544 31.2968 29.9842 31.4379 29.8439C31.579 29.7002 31.6502 29.5085 31.6502 29.269C31.6502 29.0463 31.579 28.8684 31.4379 28.735C31.2995 28.5984 31.0547 28.5297 30.7041 28.5297H29.6879V30.0544Z" fill="#1CB14D"/>
<path d="M38.5265 30.4293H36.246L35.9322 31.6718H33.8862L36.3211 24.1455H38.5042L40.9391 31.6718H38.8442L38.5265 30.4293ZM38.1068 28.8016L37.3908 26.0959L36.6792 28.8016H38.1068Z" fill="#1CB14D"/>
<path d="M41.5894 24.1455H43.4583L45.898 28.309V24.1455H47.7847V31.6718H45.898L43.4719 27.539V31.6718H41.5894V24.1455Z" fill="#1CB14D"/>
<path d="M49.1328 24.1455H51.1347V26.9894L53.2336 24.1455H55.8942L53.5344 26.9846L56.0001 31.6718H53.5344L52.1686 28.5761L51.1347 29.8337V31.6718H49.1328V24.1455Z" fill="#1CB14D"/>
</g>
<defs>
<clipPath id="clip0_387_671">
<rect width="56" height="30.8726" fill="white" transform="translate(0 0.798828)"/>
</clipPath>
</defs>
</svg>
