<svg width="43" height="45" viewBox="0 0 43 45" fill="none" xmlns="http://www.w3.org/2000/svg">
<path d="M15.4531 18.543H12.7656V30.2971H15.4531V18.543Z" fill="#6F859B" stroke="#6F859B" stroke-width="2" stroke-linecap="round" stroke-linejoin="round"/>
<path d="M22.8438 18.543H19.4844V30.2971H22.8438V18.543Z" fill="#6F859B" stroke="#6F859B" stroke-width="2" stroke-linecap="round" stroke-linejoin="round"/>
<path d="M29.5625 18.543H26.875V30.2971H29.5625V18.543Z" fill="#6F859B" stroke="#6F859B" stroke-width="2" stroke-linecap="round" stroke-linejoin="round"/>
<path d="M21.1641 8.86328L7.39062 15.7775H34.9375L21.1641 8.86328Z" fill="#8499B2" stroke="#8499B2" stroke-width="2" stroke-linecap="round" stroke-linejoin="round"/>
<path d="M34.2656 30.2969H8.0625V33.0625H34.2656V30.2969Z" fill="#546C7F" stroke="#546C7F" stroke-width="2" stroke-linecap="round" stroke-linejoin="round"/>
<path d="M36.2812 33.0635H6.04688V35.8291H36.2812V33.0635Z" fill="#8499B2" stroke="#8499B2" stroke-width="2" stroke-linecap="round" stroke-linejoin="round"/>
<path d="M34.9375 15.7773H7.39062V18.543H34.9375V15.7773Z" fill="#546C7F" stroke="#546C7F" stroke-width="2" stroke-linecap="round" stroke-linejoin="round"/>
<path d="M21.1641 13.7032C21.7207 13.7032 22.1719 13.2388 22.1719 12.666C22.1719 12.0932 21.7207 11.6289 21.1641 11.6289C20.6075 11.6289 20.1562 12.0932 20.1562 12.666C20.1562 13.2388 20.6075 13.7032 21.1641 13.7032Z" fill="#546C7F" stroke="#546C7F" stroke-width="2" stroke-linecap="round" stroke-linejoin="round"/>
</svg>
